<svg width="181" height="181" viewBox="0 0 181 181" fill="none" xmlns="http://www.w3.org/2000/svg">
<circle cx="90.7627" cy="90.155" r="73" fill="#E9E9E8"/>
<path d="M13.1523 81.2866V120.442L14.2844 121.096L109.302 72.9352L110.434 26.4285L109.302 25.7749L13.1523 81.2866Z" fill="#AAC7C7"/>
<path d="M14.2842 121.096L110.433 73.5888V26.4285L14.2842 81.9402V121.096Z" fill="#B9E6E6"/>
<path d="M14.2842 121.096L72.2031 154.535L168.372 99.0117L110.453 65.5725L14.2842 121.096Z" fill="#C8C8C8"/>
<path d="M89.318 28.664C87.6942 27.7267 86.0471 27.3723 84.689 27.6989C83.8822 27.9166 81.8101 29.2064 81.8101 29.2064C81.8101 29.2064 81.5439 30.4643 81.5439 33.0128C81.5439 33.9205 82.1838 36.127 82.1838 36.127C82.1838 36.127 83.3394 35.4625 83.6132 35.3152C83.9434 35.1377 84.1659 34.7474 84.1659 34.251C84.1659 30.6457 85.3921 29.5155 89.0864 31.6136C90.2268 32.2721 91.4875 33.6537 92.216 34.8926C93.0713 36.347 93.7815 38.2652 93.7815 40.1059V76.0943C93.7815 77.0017 94.3756 79.3923 94.3756 79.3923C94.3756 79.3923 95.9907 78.4628 96.0445 78.4189C96.2477 78.2519 96.3697 77.9583 96.3697 77.5611V41.573C96.3697 38.1003 95.1902 35.3658 94.2005 33.6829C92.9377 31.5352 91.2038 29.7528 89.318 28.664Z" fill="#AAAAAA"/>
<path d="M87.7546 29.5664C83.9331 27.36 79.9805 28.3838 79.9805 33.9156C79.9805 34.823 80.2867 35.7068 81.0724 36.1603C81.8585 36.6142 82.6024 36.0612 82.6024 35.1538C82.6024 31.5485 83.8287 30.4182 87.5232 32.5164C88.6637 33.1748 89.9244 34.5565 90.6529 35.7954C91.5082 37.2498 92.2184 39.1679 92.2184 41.0087V76.9971C92.2184 77.9048 92.5973 78.8319 93.3834 79.2858C94.1695 79.7393 94.8066 79.3716 94.8066 78.4642V42.4758C94.8066 39.003 93.6271 36.2682 92.6374 34.5857C91.3743 32.4376 89.6404 30.6555 87.7546 29.5664Z" fill="url(#paint0_linear_2012_423)"/>
<path d="M93.4919 57.8574C93.1892 57.6827 92.9157 57.6648 92.7139 57.7727L92.7128 57.7706L92.7019 57.7776L92.6942 57.7815L74.7139 68.2176L76.3606 70.9261L94.2769 60.5321C94.2825 60.5286 94.2878 60.5262 94.2931 60.5226L94.3022 60.5177L94.3015 60.5163C94.4942 60.395 94.6148 60.15 94.6148 59.8019C94.6148 59.0858 94.1117 58.2153 93.4919 57.8574Z" fill="#FDFDFD"/>
<path d="M93.5166 42.6773C93.2139 42.5026 92.9404 42.485 92.7386 42.5929L92.7376 42.5908L92.7267 42.5978L92.7189 42.6017L74.7383 53.0378L76.3854 55.7463L94.3013 45.3523C94.307 45.3488 94.3122 45.3464 94.3172 45.3432L94.3263 45.3383L94.3256 45.3369C94.5182 45.2156 94.6388 44.9709 94.6388 44.6225C94.6392 43.906 94.1364 43.0352 93.5166 42.6773Z" fill="#FDFDFD"/>
<path d="M93.4922 73.0213C93.1895 72.8466 92.916 72.829 92.7142 72.9369L92.7132 72.9348L92.7023 72.9418L92.6945 72.9453L74.7139 83.3815L76.3606 86.0899L94.2773 75.6963C94.2829 75.6928 94.2882 75.69 94.2934 75.6868L94.3026 75.6819L94.3019 75.6805C94.4945 75.5592 94.6151 75.3145 94.6151 74.9665C94.6151 74.25 94.112 73.3795 93.4922 73.0213Z" fill="#FDFDFD"/>
<path d="M69.3093 40.2159C67.6857 39.2783 66.0383 38.9239 64.6802 39.2509C63.8734 39.4685 61.8013 40.7584 61.8013 40.7584C61.8013 40.7584 61.5352 42.0163 61.5352 44.5651C61.5352 45.4729 62.175 47.6789 62.175 47.6789C62.175 47.6789 63.3309 47.0145 63.6045 46.8675C63.9346 46.69 64.1571 46.2994 64.1571 45.8033C64.1571 42.198 65.3834 41.0678 69.0779 43.1655C70.2184 43.824 71.4791 45.206 72.2075 46.4449C73.0629 47.8993 73.773 49.8175 73.773 51.6579V87.6463C73.773 88.554 74.3672 90.9443 74.3672 90.9443C74.3672 90.9443 75.9826 90.0151 76.0361 89.9708C76.2393 89.8038 76.3612 89.5103 76.3612 89.113V53.125C76.3612 49.6526 75.1818 46.9178 74.1921 45.2348C72.9293 43.0872 71.195 41.3047 69.3093 40.2159Z" fill="#AAAAAA"/>
<path d="M67.7458 41.1187C63.9243 38.9123 59.9717 39.9357 59.9717 45.4679C59.9717 46.3753 60.2775 47.2591 61.0636 47.713C61.8494 48.1669 62.5936 47.6138 62.5936 46.7061C62.5936 43.1008 63.8199 41.9706 67.5144 44.0687C68.6549 44.7272 69.9156 46.1088 70.6441 47.3477C71.4994 48.8021 72.2096 50.7202 72.2096 52.561V88.5494C72.2096 89.4568 72.5886 90.3842 73.3746 90.8381C74.1604 91.292 74.7978 90.9239 74.7978 90.0161V54.0278C74.7978 50.5554 73.6183 47.8206 72.6286 46.1376C71.3658 43.9899 69.6316 42.2075 67.7458 41.1187Z" fill="url(#paint1_linear_2012_423)"/>
<path opacity="0.3" d="M72.2031 154.535L168.372 99.0117V73.7449L72.2031 129.268V154.535Z" fill="#009FFF"/>
<path opacity="0.3" d="M14.2842 95.8287L72.2031 129.268L168.372 73.745L110.453 40.3054L14.2842 95.8287Z" fill="#78CCFF"/>
<path opacity="0.3" d="M14.2842 121.096L72.203 154.535V129.268L14.2842 95.8286V121.096Z" fill="#0084FF"/>
<g opacity="0.3">
<path d="M151.685 64.9196C135.102 58.9406 122.58 66.9415 116.119 81.7837C117.23 81.8474 118.337 81.9518 119.432 82.1016C117.948 82.9436 116.465 83.7855 114.982 84.6279C115.336 83.6537 115.717 82.7066 116.118 81.7837C100.212 80.8743 83.1482 88.7718 80.3062 105.059C81.6797 105.241 83.0666 105.515 84.4652 105.915C82.939 107.077 81.4125 108.24 79.8864 109.403C79.9121 107.891 80.0639 106.448 80.3062 105.059C69.4236 103.609 59.5144 108.817 53.5674 118.509L61.0901 122.853C66.0398 114.787 73.1575 110.207 82.5421 112.891C84.8378 113.548 87.0815 111.73 87.1209 109.403C87.3814 94.0596 104.105 87.2456 117.508 89.078C119.592 89.3627 121.214 88.597 121.958 86.5516C126.696 73.5273 136.049 66.952 149.761 71.8964C154.161 73.4819 156.039 66.4897 151.685 64.9196Z" fill="#78CCFF"/>
<path d="M119.432 82.1015C118.337 81.9517 117.23 81.8473 116.119 81.7837C115.717 82.7065 115.337 83.6537 114.982 84.6278C116.465 83.7855 117.949 82.9435 119.432 82.1015Z" fill="#78CCFF"/>
<path d="M84.4655 105.915C83.067 105.515 81.6804 105.242 80.3065 105.059C80.0639 106.448 79.9124 107.891 79.8867 109.402C81.4132 108.24 82.9393 107.077 84.4655 105.915Z" fill="#78CCFF"/>
</g>
<g opacity="0.3">
<path d="M123.896 49.4175C117.431 49.4439 109.932 49.5553 104.623 53.8409C98.8071 58.536 95.9535 65.8749 90.833 71.2668C81.6547 80.9305 66.4261 77.7531 54.9173 82.5122C41.7556 89.6588 34.5967 107.594 34.5967 107.594L42.375 112.047C47.7054 103.023 54.7637 88.9338 66.2791 86.7327C74.6513 85.1324 82.2805 85.0522 90.0458 81.1112C95.5052 78.3406 99.6287 72.5539 102.906 67.5782C108.592 58.9466 113.146 56.6959 123.896 56.6516C128.56 56.6326 128.562 49.3982 123.896 49.4175Z" fill="#78CCFF"/>
</g>
<path d="M64.3358 94.4118C64.2996 94.4297 63.6939 97.0977 63.4372 97.2461C62.243 97.9355 61.3816 98.1925 60.7471 98.2537C61.2772 99.0289 61.6949 99.9113 62.2054 100.75C62.5 101.234 62.7703 101.636 63.0554 101.973C63.4942 102.05 63.9322 102.128 64.3717 102.2C64.8006 101.324 65.6067 100.468 66.8716 99.674L66.8713 99.6726C67.0035 99.591 67.1399 99.5098 67.2809 99.4283C71.7074 96.8724 78.8835 96.8724 83.3097 99.4283C84.8354 100.309 85.8001 101.275 86.2652 102.265C86.6323 102.24 86.9982 102.208 87.3649 102.179C88.0927 101.482 88.6365 100.497 88.9955 99.713C89.3762 98.8823 89.7858 97.9991 90.1514 97.0981C89.5024 96.7353 88.556 96.1991 87.1526 95.3884C80.8941 91.7754 70.9238 91.1201 64.3358 94.4118Z" fill="#FFB700"/>
<path d="M92.3478 99.7848C92.2983 99.8671 92.2547 99.9627 92.2044 100.043C91.2183 101.603 89.779 103.124 87.9438 103.562C87.427 104.744 86.288 105.899 84.47 106.949C79.3899 109.881 71.1546 109.227 66.0749 106.294C64.6433 105.467 63.6663 104.628 63.0426 103.784C62.9347 103.773 62.8285 103.768 62.721 103.756C61.8765 103.664 60.7821 103.48 60.2076 102.759C59.436 101.791 58.7954 100.433 58.0775 99.1495C58.048 99.1401 58.0178 99.1334 57.9882 99.1239C57.2812 98.901 56.8123 98.1335 56.1299 97.8459C55.8138 99.4867 54.2796 106.933 61.6642 111.546C69.1795 115.885 81.3643 115.885 88.8797 111.546C94.3416 108.424 95.0999 101.12 94.46 98.0945C93.6367 98.1406 93.1614 99.6526 92.3478 99.7848Z" fill="#FFB700"/>
<path d="M93.2352 94.8777C92.2976 93.4703 90.846 92.1506 88.8801 91.0157C81.3647 86.6764 69.1803 86.6764 61.6645 91.0157C58.1384 93.0513 56.2832 95.6803 56.0701 98.3462C56.068 98.363 56.0624 98.3732 56.0603 98.3908C56.0483 98.5856 56.0691 98.78 56.0747 98.9751C56.0775 99.146 56.0624 99.3168 56.0786 99.4877C56.0817 99.4887 56.0846 99.4898 56.0877 99.4905C56.37 102.093 58.2189 104.649 61.6645 106.638C69.1803 110.977 81.3647 110.977 88.8801 106.638C91.4465 105.157 93.1361 103.361 93.9499 101.466C94.1043 101.106 94.215 100.743 94.3029 100.377C94.3113 100.376 94.3191 100.376 94.3272 100.375C94.3581 100.244 94.3546 100.112 94.3774 99.9806C94.4038 99.8336 94.4428 99.6877 94.4601 99.5408C94.4622 99.4634 94.458 99.411 94.4594 99.3383C94.5722 97.8276 94.1879 96.3078 93.2352 94.8777ZM84.8744 101.057C84.4131 101.924 83.5043 102.745 82.3164 103.431C78.4316 105.674 72.1327 105.674 68.2479 103.431C66.9046 102.655 66.0232 101.706 65.607 100.712C64.8757 98.8521 65.7399 96.8257 68.2479 95.3776C72.1327 93.1346 78.4313 93.1346 82.3164 95.3776C84.9809 96.916 85.8654 99.1062 84.8744 101.057Z" fill="#FFD54A"/>
<defs>
<linearGradient id="paint0_linear_2012_423" x1="84.76" y1="32.8215" x2="97.8219" y2="71.5054" gradientUnits="userSpaceOnUse">
<stop stop-color="#EFEFEF"/>
<stop offset="0.326" stop-color="#E9E9E9"/>
<stop offset="0.7489" stop-color="#D9D9D9"/>
<stop offset="1" stop-color="#CCCCCC"/>
</linearGradient>
<linearGradient id="paint1_linear_2012_423" x1="67.2437" y1="48.4738" x2="74.0764" y2="82.4354" gradientUnits="userSpaceOnUse">
<stop stop-color="#EFEFEF"/>
<stop offset="0.326" stop-color="#E9E9E9"/>
<stop offset="0.7489" stop-color="#D9D9D9"/>
<stop offset="1" stop-color="#CCCCCC"/>
</linearGradient>
</defs>
</svg>
