<svg width="90" height="14" viewBox="0 0 90 14" fill="none" xmlns="http://www.w3.org/2000/svg">
<g id="Group">
<g id="Group_2">
<path id="Vector" d="M80.1602 4.57374C77.1789 2.42996 73.8 0 67.251 0C60.7021 0 57.3228 2.42978 54.3419 4.57374C51.68 6.4879 49.5774 7.99988 45.0016 7.99988C40.4254 7.99988 38.3227 6.4879 35.6606 4.57374C32.6791 2.42978 29.2998 0 22.7507 0C16.2015 0 12.8222 2.42978 9.84083 4.57374C7.17865 6.4879 5.07603 8.00005 0.5 8.00005V14C7.04915 14 10.4284 11.5702 13.4097 9.42626C16.0719 7.5121 18.1745 6.00012 22.7507 6.00012C27.3267 6.00012 29.4293 7.5121 32.0917 9.42626C35.073 11.5702 38.4524 14 45.0016 14C51.5505 14 54.9298 11.5702 57.9107 9.42626C60.5726 7.5121 62.6752 6.00012 67.251 6.00012C71.8267 6.00012 73.9293 7.5121 76.5912 9.42626C79.5723 11.5702 82.9512 14 89.5 14V8.00005C84.9247 8.00005 82.822 6.4879 80.1602 4.57374Z" fill="white"/>
</g>
</g>
</svg>
