<svg width="346" height="210" viewBox="0 0 346 210" fill="none" xmlns="http://www.w3.org/2000/svg">
<g clip-path="url(#clip0_106_1856)">
<path d="M340.816 -72.3224C319.189 -42.7393 292.296 -17.0517 262.119 3.73594C233.027 23.7804 200.134 39.9123 165.582 47.9138C137.102 54.5105 107.078 56.8247 78.0235 53.1599C51.1851 49.7734 23.5172 40.5774 4.63682 20.3768C3.0051 18.6327 1.46856 16.8036 6.98914e-06 14.9237C0.163179 15.1341 0.815868 14.9712 0.98584 15.1884C19.9342 39.4644 50.5154 49.9532 80.189 53.2753C109.149 56.5193 139.009 53.8488 167.279 47.0214C184.215 42.929 200.678 36.6242 216.424 29.2267C233.187 21.3508 249.201 11.9037 264.336 1.24861C293.224 -19.0877 318.985 -44.0695 339.83 -72.5837C339.905 -72.6889 340.748 -72.2274 340.816 -72.319L340.816 -72.3224Z" fill="url(#paint0_linear_106_1856)"/>
<path d="M247.73 12.6568C247.73 12.6568 213.895 17.0308 186.666 5.76154C159.436 -5.50776 107.412 -44.9656 98.478 -48.9799C89.5477 -52.9942 126.595 -36.3974 142.052 -26.2716C157.506 -16.1459 199.981 5.26271 213.511 7.2614C232.116 10.0134 256.133 7.32588 256.133 7.32588L247.73 12.6568Z" fill="url(#paint1_linear_106_1856)"/>
<path d="M266.042 0.11532C266.042 0.11532 232.211 4.48933 204.978 -6.77997C177.749 -18.0493 125.724 -57.507 116.79 -61.5214C107.857 -65.5357 144.907 -48.9388 160.361 -38.8131C175.815 -28.6874 218.294 -7.28216 231.82 -5.28009C250.425 -2.52808 274.442 -5.21561 274.442 -5.21561L266.039 0.11532L266.042 0.11532Z" fill="url(#paint2_linear_106_1856)"/>
<path d="M232.143 21.3745C232.143 21.3745 158.722 5.77869 116.012 -21.6293C84.7541 -41.6908 81.3717 -40.3233 69.4805 -42.3423C69.4805 -42.3423 89.9858 -30.3469 114.941 -16.1321C175.617 18.4325 225.585 25.002 225.585 25.002L232.143 21.3779L232.143 21.3745Z" fill="url(#paint3_linear_106_1856)"/>
<path d="M216.938 28.6059C216.938 28.6059 143.581 10.8316 110.165 -4.79815C78.921 -19.4133 71.5884 -18.9314 67.3324 -19.5694C63.0763 -20.2039 91.5974 -7.25831 97.7028 -4.36379C103.805 -1.46927 151.04 15.5348 157.366 17.8524C167.112 21.4256 211.366 31.8975 211.366 31.8975L216.938 28.6059Z" fill="url(#paint4_linear_106_1856)"/>
<path d="M266.793 1.22484C266.793 1.22484 225.378 39.6782 190.289 51.4633C155.197 63.2483 119.187 75.0843 93.4126 88.6203C67.6382 102.156 53.9453 112.333 53.9453 112.333C53.9453 112.333 96.7271 80.0793 134.07 65.963C171.412 51.8501 207.623 39.7494 217.012 33.672C226.354 27.625 246.608 14.8186 246.608 14.8186L266.793 1.22484Z" fill="url(#paint5_linear_106_1856)"/>
<path d="M163.845 49.1457C163.845 49.1457 130.476 62.0676 108.652 66.5773C86.8242 71.0904 44.668 80.378 30.2238 85.9669C23.3978 88.6069 67.7739 74.0494 91.937 67.3272C116.1 60.605 149.601 50.8695 149.601 50.8695L163.848 49.1457L163.845 49.1457Z" fill="url(#paint6_linear_106_1856)"/>
<path d="M200.654 36.4274C200.654 36.4274 138.941 27.3943 109.597 11.8188C80.2537 -3.75662 56.7365 -13.0713 53.7178 -15.1752C50.6991 -17.2791 78.061 -2.2805 86.308 4.26187C94.555 10.8042 134.624 26.4815 143.49 28.4666C151.108 30.1735 189.107 39.3355 189.107 39.3355L200.651 36.424L200.654 36.4274Z" fill="url(#paint7_linear_106_1856)"/>
<path d="M179.819 43.8113C179.819 43.8113 110.92 25.5755 83.7548 19.3555C56.5901 13.1355 35.7958 5.49367 27.0695 5.32061C18.3432 5.14755 66.2852 16.159 76.2829 20.5669C86.2806 24.9783 121.091 34.9615 130.191 36.1559C139.291 37.3504 169.427 45.3892 169.485 45.3485C169.543 45.3078 179.819 43.8113 179.819 43.8113Z" fill="url(#paint8_linear_106_1856)"/>
<path d="M152.365 47.9612C152.365 47.9612 68.9673 32.7047 44.5798 33.0033C20.189 33.302 1.03321 31.4492 1.03321 31.4492C1.03321 31.4492 66.1865 38.1918 72.9412 39.6916C79.6958 41.1915 150.067 52.6915 147.355 50.6996C146.09 49.7699 154.952 48.7654 154.952 48.7654L152.365 47.9612Z" fill="url(#paint9_linear_106_1856)"/>
<path d="M312.475 -39.4205C251.959 -19.9631 261.685 -18.5651 214.215 -5.1478C169.227 7.56704 120.316 -6.90555 124.463 -4.87294C143.935 4.66914 203.541 5.29352 222.394 -1.61192C244.249 -9.62021 302.597 -32.2233 302.597 -32.2233L312.475 -39.4205Z" fill="url(#paint10_linear_106_1856)"/>
<path d="M344.351 -62.9298C336.509 -44.9281 324.301 -29.2949 312.635 -13.655C306.573 -5.52798 299.924 2.22242 293.261 9.86083C286.449 17.6723 279.388 25.2632 272.069 32.603C264.72 39.9801 257.163 47.303 249.014 53.8046C241.563 59.7497 233.418 64.7787 224.804 68.8609C208.619 76.523 190.731 80.9649 173.01 83.2147C156.496 85.3118 139.75 85.5934 123.13 84.9589C107.925 84.3786 92.7089 82.9771 77.7005 80.4593C71.8841 79.4854 66.0846 78.3283 60.3974 76.7605C56.811 75.7731 52.9935 74.6872 49.8252 72.6715C49.662 72.5664 49.9578 71.7519 49.8048 71.6535C52.7453 73.5267 56.2467 74.5582 59.568 75.5152C64.8847 77.0456 70.3237 78.1484 75.7696 79.1121C90.5707 81.7352 105.606 83.1502 120.615 83.8357C154.888 85.4034 190.48 83.0348 222.237 69.0034C230.909 65.1723 239.085 60.3062 246.648 54.6054C254.926 48.3651 262.449 41.066 269.822 33.8009C284.491 19.3384 298.041 3.78335 310.833 -12.3452C317.146 -20.306 323.146 -28.6197 328.897 -36.991C334.768 -45.5321 340.183 -54.4362 344.327 -63.9512C344.205 -63.6695 344.47 -63.2182 344.348 -62.9332L344.351 -62.9298Z" fill="url(#paint11_linear_106_1856)"/>
<path d="M239.122 61.9314C239.122 61.9314 206.209 115.59 200.739 128.349C195.269 141.108 180.39 171.58 175.566 180.352C170.739 189.121 160.497 207.034 158.804 209.871C157.108 212.708 184.225 168.584 186.832 163.413C189.443 158.241 202.663 143.999 203.965 141.414C205.271 138.828 246.696 76.1868 247.328 65.9457C247.961 55.7046 255.626 49.2912 255.626 49.2912L239.122 61.9348L239.122 61.9314Z" fill="url(#paint12_linear_106_1856)"/>
<path d="M197.217 79.4241C197.217 79.4241 154.959 114.05 145.022 119.34C135.086 124.63 108.655 137.369 94.3779 139.917C80.1037 142.469 57.5621 142.055 52.6908 141.342C47.8194 140.63 84.2918 148.255 114.394 127.586C138.22 111.227 165.11 99.4652 173.248 92.5055C181.386 85.5457 191.142 80.415 191.142 80.415L197.217 79.4208L197.217 79.4241Z" fill="url(#paint13_linear_106_1856)"/>
<path d="M176.073 84.7143C176.073 84.7143 151.428 104.396 131.925 111.949C112.419 119.499 90.4182 127.63 78.8465 128.227C67.2749 128.824 45.4336 126.093 45.4336 126.093C45.4336 126.093 76.5315 128.604 91.6249 121.821C106.718 115.037 161.65 90.3065 165.369 89.2682C169.088 88.2298 176.073 84.7143 176.073 84.7143Z" fill="url(#paint14_linear_106_1856)"/>
<path d="M160.84 85.3762C160.84 85.3762 136.769 99.3398 120.982 103.215C105.195 107.09 52.9867 110.236 42.4111 103.123C42.4111 103.123 76.1266 109.041 100.089 102.319C124.052 95.597 152.892 87.5174 153.474 86.5809C154.052 85.6443 160.837 85.3762 160.837 85.3762L160.84 85.3762Z" fill="url(#paint15_linear_106_1856)"/>
<path d="M229.788 67.3504C229.788 67.3504 199.39 121.451 173.765 133.84C148.14 146.229 111.386 164.532 97.1015 169.673C82.8206 174.814 145.299 146.045 150.714 140.847C156.126 135.648 193.9 104.433 200.444 99.0646C213.61 88.2602 224.93 70.8659 226.997 67.9002L229.791 67.3538L229.788 67.3504Z" fill="url(#paint16_linear_106_1856)"/>
<path d="M219.487 72.1488C219.487 72.1488 175.903 121.841 132.731 140.552C121.095 145.594 112.45 147.712 104.233 151.251C84.5949 159.717 79.5672 163.65 77.1638 165.384C74.4578 167.335 83.4357 154.312 123.892 140.701C147.77 132.669 165.341 110.195 175.985 102.631C186.629 95.0674 214.205 74.212 214.205 74.212L219.481 72.1488L219.487 72.1488Z" fill="url(#paint17_linear_106_1856)"/>
<path d="M145.006 86.343C145.006 86.343 114.442 97.6055 90.1328 96.9404C65.8202 96.2753 44.0434 94.012 40.4129 90.941C36.7823 87.8666 49.3873 97.5275 79.4518 95.0537C109.513 92.58 134.563 86.0342 137.507 86.0274C140.451 86.0206 145.01 86.3464 145.01 86.3464L145.006 86.343Z" fill="url(#paint18_linear_106_1856)"/>
<path d="M127.737 85.8818C127.737 85.8818 83.3165 92.2918 69.073 91.0838C54.8294 89.8757 40.8238 88.817 35.7824 90.9921C30.7377 93.1707 34.5042 87.1611 69.4197 87.9212C108.839 88.7797 111.474 85.0911 111.583 85.0979C111.692 85.1047 127.737 85.8818 127.737 85.8818Z" fill="url(#paint19_linear_106_1856)"/>
<path d="M103.533 84.4598C103.274 84.436 82.1569 83.8965 63.5757 58.4634C44.9945 33.0303 50.3316 30.4309 48.2307 29.9118C46.1299 29.3926 56.6341 52.5861 72.676 64.741C90.7847 78.4603 116.495 84.6939 116.641 85.3454C116.787 85.997 103.533 84.4598 103.533 84.4598Z" fill="url(#paint20_linear_106_1856)"/>
<path d="M122.372 84.9177C122.372 84.9177 91.621 78.355 74.7768 58.2494C60.4449 41.1436 63.6233 42.9556 63.6233 42.9556C63.6233 42.9556 76.2284 61.8565 89.1768 68.6738C100.847 74.8191 130.898 85.9561 130.898 85.9561L122.372 84.9177Z" fill="url(#paint21_linear_106_1856)"/>
<path d="M142.507 84.7381C142.507 84.7381 110.135 82.1965 87.7494 59.9735C65.3642 37.7505 70.3443 41.7682 70.3443 41.7682C70.3443 41.7682 92.053 61.246 100.388 66.8382C109.778 73.1397 151.251 85.3218 151.251 85.3218L142.507 84.7381Z" fill="url(#paint22_linear_106_1856)"/>
<path d="M168.064 84.1919C168.064 84.1919 122.464 79.1087 103.196 66.3802C103.196 66.3802 116.736 71.2124 125.768 73.8863C148.755 80.69 178.572 83.2723 178.572 83.2723L168.064 84.1919Z" fill="url(#paint23_linear_106_1856)"/>
<path d="M184.83 81.4497C184.83 81.4497 139.23 76.3665 119.962 63.638C119.962 63.638 133.502 68.4702 142.537 71.1441C165.524 77.9478 195.341 80.5301 195.341 80.5301L184.833 81.4497" fill="url(#paint24_linear_106_1856)"/>
<path d="M323.33 -50.751C338.709 -14.9954 344.715 25.0359 340.452 63.7166C336.985 95.1593 325.454 126.103 306.254 151.411C293.605 168.082 276.197 182.758 254.77 185.527C254.454 185.568 254.094 185.225 253.784 185.263C283.998 181.36 305.404 154.889 318.91 129.744C325.774 116.968 331.359 103.256 334.888 89.1768C339.626 70.2556 341.323 50.6251 340.639 31.1608C339.65 2.9995 333.484 -25.1109 322.347 -51.0089C322.429 -50.8223 323.248 -50.9445 323.333 -50.7443L323.33 -50.751Z" fill="url(#paint25_linear_106_1856)"/>
<path d="M341.244 35.4057C341.244 35.4057 331.791 57.3776 315.232 69.7701C298.673 82.166 256.181 99.4313 250.558 103.385C244.935 107.338 268.228 90.9242 279.885 85.2234C291.541 79.5226 319.692 61.5548 325.74 54.1132C334.058 43.8755 341.023 28.429 341.023 28.429L341.244 35.4057Z" fill="url(#paint26_linear_106_1856)"/>
<path d="M340.2 19.8745C340.2 19.8745 330.75 41.8464 314.188 54.2389C297.629 66.6347 255.137 83.9035 249.514 87.8533C243.891 91.8065 267.184 75.3929 278.844 69.6921C290.501 63.9913 318.651 46.0236 324.699 38.582C333.017 28.3443 339.983 12.8978 339.983 12.8978L340.204 19.8745L340.2 19.8745Z" fill="url(#paint27_linear_106_1856)"/>
<path d="M340.945 47.9271C340.945 47.9271 305.248 86.6349 273.382 102.597C250.062 114.277 249.678 116.809 244.201 123.256C244.201 123.256 258.795 115.176 276.326 105.207C318.948 80.9714 340.796 53.1799 340.796 53.1799L340.945 47.9271Z" fill="url(#paint28_linear_106_1856)"/>
<path d="M339.889 59.6852C339.889 59.6852 302.896 97.5753 281.483 112.143C261.464 125.764 259.132 130.355 257.225 132.696C255.318 135.038 273.355 122.462 277.288 119.815C281.221 117.172 308.406 94.7588 312.074 91.7726C317.724 87.1713 339.889 64.2255 339.889 64.2255L339.889 59.6886L339.889 59.6852Z" fill="url(#paint29_linear_106_1856)"/>
<path d="M341.139 19.8202C341.139 19.8202 349.607 58.5518 344.192 83.934C338.777 109.313 333.062 135.268 332.039 155.656C331.016 176.043 332.28 187.94 332.28 187.94C332.28 187.94 328.055 150.6 332.865 123.029C337.675 95.4578 343.301 69.2883 342.978 61.4497C342.659 53.6518 342.149 36.8582 342.149 36.8582L341.139 19.8202Z" fill="url(#paint30_linear_106_1856)"/>
<path d="M333.334 99.0546C333.334 99.0546 329.224 123.802 324.149 138.58C319.074 153.358 309.62 182.107 307.839 192.819C306.996 197.882 314.053 165.907 318.625 148.93C323.197 131.953 329.286 108.264 329.286 108.264L333.334 99.0546Z" fill="url(#paint31_linear_106_1856)"/>
<path d="M338.797 72.3049C338.797 72.3049 311.258 106.299 291.338 118.427C271.414 130.558 257.367 141.41 255.015 142.479C252.659 143.548 271.526 132.408 278.437 129.771C285.348 127.135 309.164 108.576 313.539 103.938C317.296 99.9539 336.431 80.3098 336.431 80.3098L338.797 72.3049Z" fill="url(#paint32_linear_106_1856)"/>
<path d="M335.815 87.5107C335.815 87.5107 300.135 122.547 286.656 136.711C273.177 150.871 261.113 160.681 257.887 165.883C254.661 171.085 278.47 146.104 284.715 141.651C290.96 137.199 309.453 119.771 313.43 114.712C317.407 109.649 333.048 94.3449 333.048 94.2973C333.048 94.2464 335.815 87.5141 335.815 87.5141L335.815 87.5107Z" fill="url(#paint33_linear_106_1856)"/>
<path d="M328.51 105.553C328.51 105.553 289.447 150.399 280.908 165.218C272.369 180.037 264.394 190.929 264.394 190.929C264.394 190.929 291.773 154.04 295.097 150.504C298.422 146.968 330.55 108.63 328.374 109.557C327.358 109.988 329.921 104.28 329.921 104.28L328.507 105.553L328.51 105.553Z" fill="url(#paint34_linear_106_1856)"/>
<path d="M327.065 -40.3136C327.065 -40.3136 322.405 -13.4349 316.744 5.92073C311.333 24.428 296.739 66.8787 275.227 96.0852C273.793 98.033 296.729 69.3728 309.072 41.1809C321.585 12.5988 328.884 -35.1896 328.884 -35.1896L327.065 -40.3102L327.065 -40.3136Z" fill="url(#paint35_linear_106_1856)"/>
<path d="M332.872 -22.2709C323.01 21.1911 327.331 15.8228 318.479 49.254C310.086 80.9377 283.835 105.265 286.548 103.49C299.286 95.1558 320.984 59.4273 323.544 45.5858C326.512 29.5387 333.698 -13.7366 333.698 -13.7366L332.876 -22.2675L332.872 -22.2709Z" fill="url(#paint36_linear_106_1856)"/>
</g>
<defs>
<linearGradient id="paint0_linear_106_1856" x1="0.35695" y1="-8.85003" x2="340.462" y2="-8.84997" gradientUnits="userSpaceOnUse">
<stop stop-color="#1D6D4D"/>
<stop offset="0.29" stop-color="#1F6E4C"/>
<stop offset="0.48" stop-color="#287249"/>
<stop offset="0.63" stop-color="#377945"/>
<stop offset="0.77" stop-color="#4C843F"/>
<stop offset="0.9" stop-color="#669137"/>
<stop offset="0.98" stop-color="#7D9C31"/>
</linearGradient>
<linearGradient id="paint1_linear_106_1856" x1="214.877" y1="35.1149" x2="138.88" y2="-77.7148" gradientUnits="userSpaceOnUse">
<stop stop-color="#1D6D4D"/>
<stop offset="0.29" stop-color="#1F6E4C"/>
<stop offset="0.48" stop-color="#287249"/>
<stop offset="0.63" stop-color="#377945"/>
<stop offset="0.77" stop-color="#4C843F"/>
<stop offset="0.9" stop-color="#669137"/>
<stop offset="0.98" stop-color="#7D9C31"/>
</linearGradient>
<linearGradient id="paint2_linear_106_1856" x1="233.189" y1="22.572" x2="157.192" y2="-90.2577" gradientUnits="userSpaceOnUse">
<stop stop-color="#1D6D4D"/>
<stop offset="0.29" stop-color="#1F6E4C"/>
<stop offset="0.48" stop-color="#287249"/>
<stop offset="0.63" stop-color="#377945"/>
<stop offset="0.77" stop-color="#4C843F"/>
<stop offset="0.9" stop-color="#669137"/>
<stop offset="0.98" stop-color="#7D9C31"/>
</linearGradient>
<linearGradient id="paint3_linear_106_1856" x1="191.216" y1="48.9437" x2="110.932" y2="-70.2503" gradientUnits="userSpaceOnUse">
<stop stop-color="#1D6D4D"/>
<stop offset="0.29" stop-color="#1F6E4C"/>
<stop offset="0.48" stop-color="#287249"/>
<stop offset="0.63" stop-color="#377945"/>
<stop offset="0.77" stop-color="#4C843F"/>
<stop offset="0.9" stop-color="#669137"/>
<stop offset="0.98" stop-color="#7D9C31"/>
</linearGradient>
<linearGradient id="paint4_linear_106_1856" x1="176.721" y1="55.6985" x2="107.592" y2="-46.9344" gradientUnits="userSpaceOnUse">
<stop stop-color="#1D6D4D"/>
<stop offset="0.29" stop-color="#1F6E4C"/>
<stop offset="0.48" stop-color="#287249"/>
<stop offset="0.63" stop-color="#377945"/>
<stop offset="0.77" stop-color="#4C843F"/>
<stop offset="0.9" stop-color="#669137"/>
<stop offset="0.98" stop-color="#7D9C31"/>
</linearGradient>
<linearGradient id="paint5_linear_106_1856" x1="170.038" y1="70.7281" x2="152.857" y2="45.2206" gradientUnits="userSpaceOnUse">
<stop stop-color="#1D6D4D"/>
<stop offset="0.29" stop-color="#1F6E4C"/>
<stop offset="0.48" stop-color="#287249"/>
<stop offset="0.63" stop-color="#377945"/>
<stop offset="0.77" stop-color="#4C843F"/>
<stop offset="0.9" stop-color="#669137"/>
<stop offset="0.98" stop-color="#7D9C31"/>
</linearGradient>
<linearGradient id="paint6_linear_106_1856" x1="109.239" y1="85.9346" x2="84.5247" y2="49.2418" gradientUnits="userSpaceOnUse">
<stop stop-color="#1D6D4D"/>
<stop offset="0.29" stop-color="#1F6E4C"/>
<stop offset="0.48" stop-color="#287249"/>
<stop offset="0.63" stop-color="#377945"/>
<stop offset="0.77" stop-color="#4C843F"/>
<stop offset="0.9" stop-color="#669137"/>
<stop offset="0.98" stop-color="#7D9C31"/>
</linearGradient>
<linearGradient id="paint7_linear_106_1856" x1="162.284" y1="62.2784" x2="92.3584" y2="-41.5373" gradientUnits="userSpaceOnUse">
<stop stop-color="#1D6D4D"/>
<stop offset="0.29" stop-color="#1F6E4C"/>
<stop offset="0.48" stop-color="#287249"/>
<stop offset="0.63" stop-color="#377945"/>
<stop offset="0.77" stop-color="#4C843F"/>
<stop offset="0.9" stop-color="#669137"/>
<stop offset="0.98" stop-color="#7D9C31"/>
</linearGradient>
<linearGradient id="paint8_linear_106_1856" x1="136.033" y1="73.312" x2="70.2647" y2="-24.3309" gradientUnits="userSpaceOnUse">
<stop stop-color="#1D6D4D"/>
<stop offset="0.29" stop-color="#1F6E4C"/>
<stop offset="0.48" stop-color="#287249"/>
<stop offset="0.63" stop-color="#377945"/>
<stop offset="0.77" stop-color="#4C843F"/>
<stop offset="0.9" stop-color="#669137"/>
<stop offset="0.98" stop-color="#7D9C31"/>
</linearGradient>
<linearGradient id="paint9_linear_106_1856" x1="106.26" y1="81.5755" x2="50.2038" y2="-1.6493" gradientUnits="userSpaceOnUse">
<stop stop-color="#1D6D4D"/>
<stop offset="0.29" stop-color="#1F6E4C"/>
<stop offset="0.48" stop-color="#287249"/>
<stop offset="0.63" stop-color="#377945"/>
<stop offset="0.77" stop-color="#4C843F"/>
<stop offset="0.9" stop-color="#669137"/>
<stop offset="0.98" stop-color="#7D9C31"/>
</linearGradient>
<linearGradient id="paint10_linear_106_1856" x1="240.219" y1="9.78479" x2="197.146" y2="-54.1644" gradientUnits="userSpaceOnUse">
<stop stop-color="#1D6D4D"/>
<stop offset="0.29" stop-color="#1F6E4C"/>
<stop offset="0.48" stop-color="#287249"/>
<stop offset="0.63" stop-color="#377945"/>
<stop offset="0.77" stop-color="#4C843F"/>
<stop offset="0.9" stop-color="#669137"/>
<stop offset="0.98" stop-color="#7D9C31"/>
</linearGradient>
<linearGradient id="paint11_linear_106_1856" x1="190.33" y1="-19.2766" x2="216.787" y2="72.6109" gradientUnits="userSpaceOnUse">
<stop offset="0.01" stop-color="#1D494D"/>
<stop offset="0.33" stop-color="#1F4B4D"/>
<stop offset="0.52" stop-color="#27524E"/>
<stop offset="0.68" stop-color="#365F4F"/>
<stop offset="0.82" stop-color="#4A7252"/>
<stop offset="0.95" stop-color="#648955"/>
<stop offset="0.98" stop-color="#6D9156"/>
</linearGradient>
<linearGradient id="paint12_linear_106_1856" x1="218.936" y1="200.294" x2="195.847" y2="59.2023" gradientUnits="userSpaceOnUse">
<stop offset="0.01" stop-color="#1D494D"/>
<stop offset="0.33" stop-color="#1F4B4D"/>
<stop offset="0.52" stop-color="#27524E"/>
<stop offset="0.68" stop-color="#365F4F"/>
<stop offset="0.82" stop-color="#4A7252"/>
<stop offset="0.95" stop-color="#648955"/>
<stop offset="0.98" stop-color="#6D9156"/>
</linearGradient>
<linearGradient id="paint13_linear_106_1856" x1="128.841" y1="134.436" x2="121.879" y2="91.8904" gradientUnits="userSpaceOnUse">
<stop offset="0.01" stop-color="#1D494D"/>
<stop offset="0.33" stop-color="#1F4B4D"/>
<stop offset="0.52" stop-color="#27524E"/>
<stop offset="0.68" stop-color="#365F4F"/>
<stop offset="0.82" stop-color="#4A7252"/>
<stop offset="0.95" stop-color="#648955"/>
<stop offset="0.98" stop-color="#6D9156"/>
</linearGradient>
<linearGradient id="paint14_linear_106_1856" x1="113.775" y1="122.882" x2="109.338" y2="95.7719" gradientUnits="userSpaceOnUse">
<stop offset="0.01" stop-color="#1D494D"/>
<stop offset="0.33" stop-color="#1F4B4D"/>
<stop offset="0.52" stop-color="#27524E"/>
<stop offset="0.68" stop-color="#365F4F"/>
<stop offset="0.82" stop-color="#4A7252"/>
<stop offset="0.95" stop-color="#648955"/>
<stop offset="0.98" stop-color="#6D9156"/>
</linearGradient>
<linearGradient id="paint15_linear_106_1856" x1="103.766" y1="106.367" x2="101.673" y2="93.5741" gradientUnits="userSpaceOnUse">
<stop offset="0.01" stop-color="#1D494D"/>
<stop offset="0.33" stop-color="#1F4B4D"/>
<stop offset="0.52" stop-color="#27524E"/>
<stop offset="0.68" stop-color="#365F4F"/>
<stop offset="0.82" stop-color="#4A7252"/>
<stop offset="0.95" stop-color="#648955"/>
<stop offset="0.98" stop-color="#6D9156"/>
</linearGradient>
<linearGradient id="paint16_linear_106_1856" x1="169.034" y1="158.338" x2="156.139" y2="79.5373" gradientUnits="userSpaceOnUse">
<stop offset="0.01" stop-color="#1D494D"/>
<stop offset="0.33" stop-color="#1F4B4D"/>
<stop offset="0.52" stop-color="#27524E"/>
<stop offset="0.68" stop-color="#365F4F"/>
<stop offset="0.82" stop-color="#4A7252"/>
<stop offset="0.95" stop-color="#648955"/>
<stop offset="0.98" stop-color="#6D9156"/>
</linearGradient>
<linearGradient id="paint17_linear_106_1856" x1="153.887" y1="153.115" x2="142.715" y2="84.846" gradientUnits="userSpaceOnUse">
<stop offset="0.01" stop-color="#1D494D"/>
<stop offset="0.33" stop-color="#1F4B4D"/>
<stop offset="0.52" stop-color="#27524E"/>
<stop offset="0.68" stop-color="#365F4F"/>
<stop offset="0.82" stop-color="#4A7252"/>
<stop offset="0.95" stop-color="#648955"/>
<stop offset="0.98" stop-color="#6D9156"/>
</linearGradient>
<linearGradient id="paint18_linear_106_1856" x1="94.1649" y1="98.138" x2="91.5272" y2="82.0194" gradientUnits="userSpaceOnUse">
<stop offset="0.01" stop-color="#1D494D"/>
<stop offset="0.33" stop-color="#1F4B4D"/>
<stop offset="0.52" stop-color="#27524E"/>
<stop offset="0.68" stop-color="#365F4F"/>
<stop offset="0.82" stop-color="#4A7252"/>
<stop offset="0.95" stop-color="#648955"/>
<stop offset="0.98" stop-color="#6D9156"/>
</linearGradient>
<linearGradient id="paint19_linear_106_1856" x1="81.8073" y1="93.541" x2="80.092" y2="83.0588" gradientUnits="userSpaceOnUse">
<stop offset="0.01" stop-color="#1D494D"/>
<stop offset="0.33" stop-color="#1F4B4D"/>
<stop offset="0.52" stop-color="#27524E"/>
<stop offset="0.68" stop-color="#365F4F"/>
<stop offset="0.82" stop-color="#4A7252"/>
<stop offset="0.95" stop-color="#648955"/>
<stop offset="0.98" stop-color="#6D9156"/>
</linearGradient>
<linearGradient id="paint20_linear_106_1856" x1="87.7709" y1="90.2953" x2="77.1358" y2="25.3055" gradientUnits="userSpaceOnUse">
<stop offset="0.01" stop-color="#1D494D"/>
<stop offset="0.33" stop-color="#1F4B4D"/>
<stop offset="0.52" stop-color="#27524E"/>
<stop offset="0.68" stop-color="#365F4F"/>
<stop offset="0.82" stop-color="#4A7252"/>
<stop offset="0.95" stop-color="#648955"/>
<stop offset="0.98" stop-color="#6D9156"/>
</linearGradient>
<linearGradient id="paint21_linear_106_1856" x1="101.593" y1="90.8942" x2="92.9717" y2="38.2084" gradientUnits="userSpaceOnUse">
<stop offset="0.01" stop-color="#1D494D"/>
<stop offset="0.33" stop-color="#1F4B4D"/>
<stop offset="0.52" stop-color="#27524E"/>
<stop offset="0.68" stop-color="#365F4F"/>
<stop offset="0.82" stop-color="#4A7252"/>
<stop offset="0.95" stop-color="#648955"/>
<stop offset="0.98" stop-color="#6D9156"/>
</linearGradient>
<linearGradient id="paint22_linear_106_1856" x1="115.296" y1="91.3481" x2="106.188" y2="35.6884" gradientUnits="userSpaceOnUse">
<stop offset="0.01" stop-color="#1D494D"/>
<stop offset="0.33" stop-color="#1F4B4D"/>
<stop offset="0.52" stop-color="#27524E"/>
<stop offset="0.68" stop-color="#365F4F"/>
<stop offset="0.82" stop-color="#4A7252"/>
<stop offset="0.95" stop-color="#648955"/>
<stop offset="0.98" stop-color="#6D9156"/>
</linearGradient>
<linearGradient id="paint23_linear_106_1856" x1="143.392" y1="89.1679" x2="138.735" y2="60.7084" gradientUnits="userSpaceOnUse">
<stop offset="0.01" stop-color="#1D494D"/>
<stop offset="0.33" stop-color="#1F4B4D"/>
<stop offset="0.52" stop-color="#27524E"/>
<stop offset="0.68" stop-color="#365F4F"/>
<stop offset="0.82" stop-color="#4A7252"/>
<stop offset="0.95" stop-color="#648955"/>
<stop offset="0.98" stop-color="#6D9156"/>
</linearGradient>
<linearGradient id="paint24_linear_106_1856" x1="160.155" y1="86.4244" x2="155.497" y2="57.9649" gradientUnits="userSpaceOnUse">
<stop offset="0.01" stop-color="#1D494D"/>
<stop offset="0.33" stop-color="#1F4B4D"/>
<stop offset="0.52" stop-color="#27524E"/>
<stop offset="0.68" stop-color="#365F4F"/>
<stop offset="0.82" stop-color="#4A7252"/>
<stop offset="0.95" stop-color="#648955"/>
<stop offset="0.98" stop-color="#6D9156"/>
</linearGradient>
<linearGradient id="paint25_linear_106_1856" x1="254.257" y1="67.2558" x2="341.452" y2="67.2559" gradientUnits="userSpaceOnUse">
<stop stop-color="#1D6D4D"/>
<stop offset="0.29" stop-color="#1F6E4C"/>
<stop offset="0.48" stop-color="#287249"/>
<stop offset="0.63" stop-color="#377945"/>
<stop offset="0.77" stop-color="#4C843F"/>
<stop offset="0.9" stop-color="#669137"/>
<stop offset="0.98" stop-color="#7D9C31"/>
</linearGradient>
<linearGradient id="paint26_linear_106_1856" x1="343.048" y1="63.2397" x2="247.58" y2="68.9049" gradientUnits="userSpaceOnUse">
<stop stop-color="#1D6D4D"/>
<stop offset="0.29" stop-color="#1F6E4C"/>
<stop offset="0.48" stop-color="#287249"/>
<stop offset="0.63" stop-color="#377945"/>
<stop offset="0.77" stop-color="#4C843F"/>
<stop offset="0.9" stop-color="#669137"/>
<stop offset="0.98" stop-color="#7D9C31"/>
</linearGradient>
<linearGradient id="paint27_linear_106_1856" x1="342.003" y1="47.709" x2="246.536" y2="53.3742" gradientUnits="userSpaceOnUse">
<stop stop-color="#1D6D4D"/>
<stop offset="0.29" stop-color="#1F6E4C"/>
<stop offset="0.48" stop-color="#287249"/>
<stop offset="0.63" stop-color="#377945"/>
<stop offset="0.77" stop-color="#4C843F"/>
<stop offset="0.9" stop-color="#669137"/>
<stop offset="0.98" stop-color="#7D9C31"/>
</linearGradient>
<linearGradient id="paint28_linear_106_1856" x1="342.955" y1="82.4579" x2="242.106" y2="88.4425" gradientUnits="userSpaceOnUse">
<stop stop-color="#1D6D4D"/>
<stop offset="0.29" stop-color="#1F6E4C"/>
<stop offset="0.48" stop-color="#287249"/>
<stop offset="0.63" stop-color="#377945"/>
<stop offset="0.77" stop-color="#4C843F"/>
<stop offset="0.9" stop-color="#669137"/>
<stop offset="0.98" stop-color="#7D9C31"/>
</linearGradient>
<linearGradient id="paint29_linear_106_1856" x1="341.861" y1="93.6181" x2="255.023" y2="98.7712" gradientUnits="userSpaceOnUse">
<stop stop-color="#1D6D4D"/>
<stop offset="0.29" stop-color="#1F6E4C"/>
<stop offset="0.48" stop-color="#287249"/>
<stop offset="0.63" stop-color="#377945"/>
<stop offset="0.77" stop-color="#4C843F"/>
<stop offset="0.9" stop-color="#669137"/>
<stop offset="0.98" stop-color="#7D9C31"/>
</linearGradient>
<linearGradient id="paint30_linear_106_1856" x1="348.569" y1="103.025" x2="326.987" y2="104.306" gradientUnits="userSpaceOnUse">
<stop stop-color="#1D6D4D"/>
<stop offset="0.29" stop-color="#1F6E4C"/>
<stop offset="0.48" stop-color="#287249"/>
<stop offset="0.63" stop-color="#377945"/>
<stop offset="0.77" stop-color="#4C843F"/>
<stop offset="0.9" stop-color="#669137"/>
<stop offset="0.98" stop-color="#7D9C31"/>
</linearGradient>
<linearGradient id="paint31_linear_106_1856" x1="336.03" y1="145.132" x2="304.983" y2="146.975" gradientUnits="userSpaceOnUse">
<stop stop-color="#1D6D4D"/>
<stop offset="0.29" stop-color="#1F6E4C"/>
<stop offset="0.48" stop-color="#287249"/>
<stop offset="0.63" stop-color="#377945"/>
<stop offset="0.77" stop-color="#4C843F"/>
<stop offset="0.9" stop-color="#669137"/>
<stop offset="0.98" stop-color="#7D9C31"/>
</linearGradient>
<linearGradient id="paint32_linear_106_1856" x1="340.681" y1="104.678" x2="252.842" y2="109.89" gradientUnits="userSpaceOnUse">
<stop stop-color="#1D6D4D"/>
<stop offset="0.29" stop-color="#1F6E4C"/>
<stop offset="0.48" stop-color="#287249"/>
<stop offset="0.63" stop-color="#377945"/>
<stop offset="0.77" stop-color="#4C843F"/>
<stop offset="0.9" stop-color="#669137"/>
<stop offset="0.98" stop-color="#7D9C31"/>
</linearGradient>
<linearGradient id="paint33_linear_106_1856" x1="337.969" y1="124.459" x2="255.353" y2="129.361" gradientUnits="userSpaceOnUse">
<stop stop-color="#1D6D4D"/>
<stop offset="0.29" stop-color="#1F6E4C"/>
<stop offset="0.48" stop-color="#287249"/>
<stop offset="0.63" stop-color="#377945"/>
<stop offset="0.77" stop-color="#4C843F"/>
<stop offset="0.9" stop-color="#669137"/>
<stop offset="0.98" stop-color="#7D9C31"/>
</linearGradient>
<linearGradient id="paint34_linear_106_1856" x1="332.325" y1="145.372" x2="261.908" y2="149.55" gradientUnits="userSpaceOnUse">
<stop stop-color="#1D6D4D"/>
<stop offset="0.29" stop-color="#1F6E4C"/>
<stop offset="0.48" stop-color="#287249"/>
<stop offset="0.63" stop-color="#377945"/>
<stop offset="0.77" stop-color="#4C843F"/>
<stop offset="0.9" stop-color="#669137"/>
<stop offset="0.98" stop-color="#7D9C31"/>
</linearGradient>
<linearGradient id="paint35_linear_106_1856" x1="332.469" y1="25.9255" x2="271.177" y2="29.5626" gradientUnits="userSpaceOnUse">
<stop stop-color="#1D6D4D"/>
<stop offset="0.29" stop-color="#1F6E4C"/>
<stop offset="0.48" stop-color="#287249"/>
<stop offset="0.63" stop-color="#377945"/>
<stop offset="0.77" stop-color="#4C843F"/>
<stop offset="0.9" stop-color="#669137"/>
<stop offset="0.98" stop-color="#7D9C31"/>
</linearGradient>
<linearGradient id="paint36_linear_106_1856" x1="336.778" y1="38.8977" x2="282.67" y2="42.1086" gradientUnits="userSpaceOnUse">
<stop stop-color="#1D6D4D"/>
<stop offset="0.29" stop-color="#1F6E4C"/>
<stop offset="0.48" stop-color="#287249"/>
<stop offset="0.63" stop-color="#377945"/>
<stop offset="0.77" stop-color="#4C843F"/>
<stop offset="0.9" stop-color="#669137"/>
<stop offset="0.98" stop-color="#7D9C31"/>
</linearGradient>
<clipPath id="clip0_106_1856">
<rect width="346" height="210" fill="white" transform="matrix(1 1.74846e-07 1.74846e-07 -1 0 210)"/>
</clipPath>
</defs>
</svg>
