<svg xmlns="http://www.w3.org/2000/svg" version="1.1" xmlns:xlink="http://www.w3.org/1999/xlink" xmlns:svgjs="http://svgjs.dev/svgjs" width="47" height="49"><svg width="47" height="49" viewBox="0 0 47 49" fill="none" xmlns="http://www.w3.org/2000/svg">
<g clip-path="url(#clip0_2001_572)">
<path fill-rule="evenodd" clip-rule="evenodd" d="M41.614 22.0121C42.5258 19.0923 38.6024 17.3724 35.2154 20.3412C36.8761 21.3305 38.9276 22.0121 41.614 22.0121ZM0 23.0659C1.5632 22.6438 1.49759 22.2708 1.46574 20.8431C1.27082 9.84543 0.619491 12.4566 12.4062 5.65942C25.2679 -1.73771 21.3773 -1.73771 34.2389 5.65942C46.7426 12.8614 45.245 9.87716 45.1476 23.3081C39.9707 24.4763 36.5355 23.6321 34.0276 22.0429C27.8404 18.1501 21.7845 15.587 16.3789 24.6387C18.2026 23.2928 19.4889 22.5303 20.4162 22.1573C23.3139 20.9892 24.2258 23.8763 21.5886 25.4502C18.7719 27.1538 12.0646 27.9643 0 23.0659Z" fill="#52B1FF"></path>
<path fill-rule="evenodd" clip-rule="evenodd" d="M41.614 22.0121C42.5258 19.0923 38.6024 17.3724 35.2154 20.3412C36.8761 21.3305 38.9276 22.0121 41.614 22.0121ZM0 23.0659C1.5632 22.6438 1.49759 22.2708 1.46574 20.8431C1.27082 9.84543 0.619491 12.4566 12.4062 5.65942C25.2679 -1.73771 21.3773 -1.73771 34.2389 5.65942C46.7426 12.8614 45.245 9.87716 45.1476 23.3081C39.9707 24.4763 36.5355 23.6321 34.0276 22.0429C27.8404 18.1501 21.7845 15.587 16.3789 24.6387C18.2026 23.2928 19.4889 22.5303 20.4162 22.1573C23.3139 20.9892 24.2258 23.8763 21.5886 25.4502C18.7719 27.1538 12.0646 27.9643 0 23.0659Z" fill="#F88652"></path>
<path fill-rule="evenodd" clip-rule="evenodd" d="M46.1724 24.3476C46.1724 26.5214 45.1467 25.7263 45.1959 28.0952C45.3908 38.4449 45.8144 36.6605 34.239 43.3269C21.3774 50.7404 25.268 50.7404 12.4063 43.3269C-0.309648 36.0115 1.44943 39.2226 1.49768 25.0129C13.4639 33.3022 34.4667 33.2205 46.1724 24.3476Z" fill="#1588E6"></path>
<path fill-rule="evenodd" clip-rule="evenodd" d="M46.1724 24.3476C46.1724 26.5214 45.1467 25.7263 45.1959 28.0952C45.3908 38.4449 45.8144 36.6605 34.239 43.3269C21.3774 50.7404 25.268 50.7404 12.4063 43.3269C-0.309648 36.0115 1.44943 39.2226 1.49768 25.0129C13.4639 33.3022 34.4667 33.2205 46.1724 24.3476Z" fill="#3FBBD1"></path>
</g>
<defs>
<clipPath id="SvgjsClipPath1001">
<rect width="46.1723" height="48.7736" fill="white" transform="translate(0 0.113209)"></rect>
</clipPath>
</defs>
</svg><style>@media (prefers-color-scheme: light) { :root { filter: none; } }
@media (prefers-color-scheme: dark) { :root { filter: none; } }
</style></svg>