<svg width="33" height="33" viewBox="0 0 33 33" fill="none" xmlns="http://www.w3.org/2000/svg">
<g id="Social icon" clip-path="url(#clip0_106_2046)">
<path id="Vector" d="M32.1543 16.5C32.1543 7.66344 24.9909 0.5 16.1543 0.5C7.31774 0.5 0.154297 7.66344 0.154297 16.5C0.154297 24.4859 6.00523 31.1053 13.6543 32.3056V21.125H9.5918V16.5H13.6543V12.975C13.6543 8.965 16.043 6.75 19.6977 6.75C21.4477 6.75 23.2793 7.0625 23.2793 7.0625V11H21.2618C19.2743 11 18.6543 12.2334 18.6543 13.5V16.5H23.0918L22.3824 21.125H18.6543V32.3056C26.3034 31.1053 32.1543 24.4859 32.1543 16.5Z" fill="#1877F2"/>
<path id="Vector_2" d="M22.3824 21.125L23.0918 16.5H18.6543V13.5C18.6543 12.2347 19.2743 11 21.2618 11H23.2793V7.0625C23.2793 7.0625 21.4484 6.75 19.6977 6.75C16.043 6.75 13.6543 8.965 13.6543 12.975V16.5H9.5918V21.125H13.6543V32.3056C15.3109 32.5648 16.9977 32.5648 18.6543 32.3056V21.125H22.3824Z" fill="white"/>
</g>
<defs>
<clipPath id="clip0_106_2046">
<rect width="32" height="32" fill="white" transform="translate(0.154297 0.5)"/>
</clipPath>
</defs>
</svg>
