<svg width="90" height="26" viewBox="0 0 90 26" fill="none" xmlns="http://www.w3.org/2000/svg">
<g clip-path="url(#clip0_2012_567)">
<path d="M80.1602 10.5737C77.1789 8.42996 73.8 6 67.251 6C60.7021 6 57.3228 8.42978 54.3419 10.5737C51.68 12.4879 49.5774 13.9999 45.0016 13.9999C40.4254 13.9999 38.3227 12.4879 35.6606 10.5737C32.6791 8.42978 29.2998 6 22.7507 6C16.2015 6 12.8222 8.42978 9.84083 10.5737C7.17865 12.4879 5.07603 14 0.5 14V20C7.04915 20 10.4284 17.5702 13.4097 15.4263C16.0719 13.5121 18.1745 12.0001 22.7507 12.0001C27.3267 12.0001 29.4293 13.5121 32.0917 15.4263C35.073 17.5702 38.4524 20 45.0016 20C51.5505 20 54.9298 17.5702 57.9107 15.4263C60.5726 13.5121 62.6752 12.0001 67.251 12.0001C71.8267 12.0001 73.9293 13.5121 76.5912 15.4263C79.5723 17.5702 82.9512 20 89.5 20V14C84.9247 14 82.822 12.4879 80.1602 10.5737Z" fill="#F88652"/>
</g>
<defs>
<clipPath id="clip0_2012_567">
<rect width="89" height="26" fill="white" transform="translate(0.5)"/>
</clipPath>
</defs>
</svg>
