<svg width="124" height="49" viewBox="0 0 124 49" fill="none" xmlns="http://www.w3.org/2000/svg">
<g clip-path="url(#clip0_106_2038)">
<path fill-rule="evenodd" clip-rule="evenodd" d="M41.614 22.0121C42.5258 19.0923 38.6024 17.3724 35.2154 20.3412C36.8761 21.3305 38.9276 22.0121 41.614 22.0121ZM0 23.0659C1.5632 22.6438 1.49759 22.2708 1.46574 20.8431C1.27082 9.84543 0.619491 12.4566 12.4062 5.65942C25.2679 -1.73771 21.3773 -1.73771 34.2389 5.65942C46.7426 12.8614 45.245 9.87716 45.1476 23.3081C39.9707 24.4763 36.5355 23.6321 34.0276 22.0429C27.8404 18.1501 21.7845 15.587 16.3789 24.6387C18.2026 23.2928 19.4889 22.5303 20.4162 22.1573C23.3139 20.9892 24.2258 23.8763 21.5886 25.4502C18.7719 27.1538 12.0646 27.9643 0 23.0659Z" fill="#52B1FF"/>
<path fill-rule="evenodd" clip-rule="evenodd" d="M41.614 22.0121C42.5258 19.0923 38.6024 17.3724 35.2154 20.3412C36.8761 21.3305 38.9276 22.0121 41.614 22.0121ZM0 23.0659C1.5632 22.6438 1.49759 22.2708 1.46574 20.8431C1.27082 9.84543 0.619491 12.4566 12.4062 5.65942C25.2679 -1.73771 21.3773 -1.73771 34.2389 5.65942C46.7426 12.8614 45.245 9.87716 45.1476 23.3081C39.9707 24.4763 36.5355 23.6321 34.0276 22.0429C27.8404 18.1501 21.7845 15.587 16.3789 24.6387C18.2026 23.2928 19.4889 22.5303 20.4162 22.1573C23.3139 20.9892 24.2258 23.8763 21.5886 25.4502C18.7719 27.1538 12.0646 27.9643 0 23.0659Z" fill="#F88652"/>
<path fill-rule="evenodd" clip-rule="evenodd" d="M46.1724 24.3476C46.1724 26.5214 45.1467 25.7263 45.1959 28.0952C45.3908 38.4449 45.8144 36.6605 34.239 43.3269C21.3773 50.7404 25.268 50.7404 12.4063 43.3269C-0.309648 36.0115 1.44943 39.2226 1.49768 25.0129C13.4639 33.3022 34.4667 33.2205 46.1724 24.3476Z" fill="#1588E6"/>
<path fill-rule="evenodd" clip-rule="evenodd" d="M46.1724 24.3476C46.1724 26.5214 45.1467 25.7263 45.1959 28.0952C45.3908 38.4449 45.8144 36.6605 34.239 43.3269C21.3773 50.7404 25.268 50.7404 12.4063 43.3269C-0.309648 36.0115 1.44943 39.2226 1.49768 25.0129C13.4639 33.3022 34.4667 33.2205 46.1724 24.3476Z" fill="#3FBBD1"/>
</g>
<path d="M67.836 22.0231C67.836 22.79 67.66 23.4941 67.308 24.1353C66.956 24.7639 66.4153 25.2731 65.6861 25.6629C64.9569 26.0526 64.0516 26.2475 62.9704 26.2475H60.9713V31H57.7464V17.7609H62.9704C64.0265 17.7609 64.9192 17.9432 65.6484 18.3078C66.3776 18.6724 66.9245 19.1753 67.2891 19.8165C67.6537 20.4578 67.836 21.1933 67.836 22.0231ZM62.7252 23.6827C63.3413 23.6827 63.8002 23.5381 64.1019 23.2489C64.4037 22.9597 64.5546 22.5511 64.5546 22.0231C64.5546 21.495 64.4037 21.0864 64.1019 20.7972C63.8002 20.508 63.3413 20.3635 62.7252 20.3635H60.9713V23.6827H62.7252ZM74.3052 31.1509C73.2742 31.1509 72.3438 30.9309 71.514 30.4908C70.6968 30.0508 70.0493 29.4221 69.5715 28.6049C69.1063 27.7877 68.8737 26.8321 68.8737 25.7383C68.8737 24.6571 69.1126 23.7078 69.5904 22.8906C70.0681 22.0608 70.7219 21.4259 71.5517 20.9858C72.3815 20.5458 73.3119 20.3257 74.3429 20.3257C75.3738 20.3257 76.3042 20.5458 77.134 20.9858C77.9638 21.4259 78.6176 22.0608 79.0954 22.8906C79.5731 23.7078 79.812 24.6571 79.812 25.7383C79.812 26.8196 79.5669 27.7751 79.0765 28.6049C78.5988 29.4221 77.9387 30.0508 77.0963 30.4908C76.2665 30.9309 75.3361 31.1509 74.3052 31.1509ZM74.3052 28.3597C74.9212 28.3597 75.443 28.1334 75.8705 27.6808C76.3105 27.2282 76.5305 26.5807 76.5305 25.7383C76.5305 24.8959 76.3168 24.2484 75.8893 23.7958C75.4744 23.3432 74.9589 23.1169 74.3429 23.1169C73.7142 23.1169 73.1925 23.3432 72.7776 23.7958C72.3627 24.2359 72.1552 24.8834 72.1552 25.7383C72.1552 26.5807 72.3564 27.2282 72.7587 27.6808C73.1736 28.1334 73.6891 28.3597 74.3052 28.3597ZM86.3131 31.1509C85.2822 31.1509 84.3518 30.9309 83.522 30.4908C82.7047 30.0508 82.0572 29.4221 81.5795 28.6049C81.1143 27.7877 80.8817 26.8321 80.8817 25.7383C80.8817 24.6571 81.1206 23.7078 81.5983 22.8906C82.0761 22.0608 82.7299 21.4259 83.5597 20.9858C84.3895 20.5458 85.3199 20.3257 86.3508 20.3257C87.3818 20.3257 88.3122 20.5458 89.142 20.9858C89.9718 21.4259 90.6256 22.0608 91.1033 22.8906C91.5811 23.7078 91.82 24.6571 91.82 25.7383C91.82 26.8196 91.5748 27.7751 91.0845 28.6049C90.6067 29.4221 89.9466 30.0508 89.1043 30.4908C88.2745 30.9309 87.3441 31.1509 86.3131 31.1509ZM86.3131 28.3597C86.9292 28.3597 87.451 28.1334 87.8784 27.6808C88.3185 27.2282 88.5385 26.5807 88.5385 25.7383C88.5385 24.8959 88.3248 24.2484 87.8973 23.7958C87.4824 23.3432 86.9669 23.1169 86.3508 23.1169C85.7222 23.1169 85.2004 23.3432 84.7855 23.7958C84.3706 24.2359 84.1632 24.8834 84.1632 25.7383C84.1632 26.5807 84.3643 27.2282 84.7667 27.6808C85.1816 28.1334 85.6971 28.3597 86.3131 28.3597ZM96.7558 17.0443V31H93.5309V17.0443H96.7558ZM107.108 24.2107C107.875 24.3742 108.491 24.7576 108.956 25.3611C109.421 25.952 109.654 26.631 109.654 27.3979C109.654 28.5043 109.264 29.3844 108.485 30.0382C107.718 30.6794 106.643 31 105.26 31H99.0928V17.7609H105.052C106.398 17.7609 107.447 18.0689 108.202 18.685C108.969 19.3011 109.352 20.1371 109.352 21.1933C109.352 21.9728 109.145 22.6203 108.73 23.1357C108.328 23.6512 107.787 24.0096 107.108 24.2107ZM102.318 23.1169H104.43C104.958 23.1169 105.36 23.0037 105.637 22.7774C105.926 22.5385 106.071 22.1928 106.071 21.7402C106.071 21.2876 105.926 20.9418 105.637 20.7029C105.36 20.464 104.958 20.3446 104.43 20.3446H102.318V23.1169ZM104.694 28.3974C105.235 28.3974 105.65 28.278 105.939 28.0391C106.24 27.7877 106.391 27.4293 106.391 26.9641C106.391 26.499 106.234 26.1343 105.92 25.8703C105.618 25.6063 105.197 25.4743 104.656 25.4743H102.318V28.3974H104.694ZM115.523 20.3257C116.264 20.3257 116.912 20.4766 117.465 20.7784C118.031 21.0801 118.465 21.4761 118.766 21.9665V20.4766H121.991V30.9811C121.991 31.9492 121.796 32.823 121.407 33.6026C121.029 34.3946 120.445 35.0233 119.653 35.4885C118.873 35.9537 117.899 36.1863 116.729 36.1863C115.17 36.1863 113.907 35.8154 112.939 35.0736C111.971 34.3444 111.418 33.3511 111.279 32.0938H114.466C114.567 32.4962 114.806 32.8105 115.183 33.0368C115.56 33.2757 116.025 33.3951 116.579 33.3951C117.245 33.3951 117.773 33.2002 118.163 32.8105C118.565 32.4333 118.766 31.8235 118.766 30.9811V29.4913C118.452 29.9816 118.018 30.3839 117.465 30.6983C116.912 31 116.264 31.1509 115.523 31.1509C114.655 31.1509 113.869 30.9309 113.165 30.4908C112.461 30.0382 111.902 29.4033 111.487 28.586C111.084 27.7562 110.883 26.8007 110.883 25.7194C110.883 24.6382 111.084 23.6889 111.487 22.8717C111.902 22.0545 112.461 21.4259 113.165 20.9858C113.869 20.5458 114.655 20.3257 115.523 20.3257ZM118.766 25.7383C118.766 24.9337 118.54 24.2987 118.087 23.8335C117.647 23.3683 117.107 23.1357 116.465 23.1357C115.824 23.1357 115.277 23.3683 114.825 23.8335C114.385 24.2862 114.165 24.9148 114.165 25.7194C114.165 26.5241 114.385 27.1653 114.825 27.6431C115.277 28.1083 115.824 28.3409 116.465 28.3409C117.107 28.3409 117.647 28.1083 118.087 27.6431C118.54 27.1779 118.766 26.543 118.766 25.7383Z" fill="#3FBBD1"/>
<defs>
<clipPath id="clip0_106_2038">
<rect width="46.1723" height="48.7736" fill="white" transform="translate(0 0.113209)"/>
</clipPath>
</defs>
</svg>
