<svg width="304" height="197" viewBox="0 0 304 197" fill="none" xmlns="http://www.w3.org/2000/svg">
<path d="M103.758 0.435668L100.464 0.432007L154.755 61.4149L217.826 127.194L237.576 145.155L188.216 94.0316L137.94 38.8845L114.651 12.6894L103.758 0.435668Z" fill="url(#paint0_linear_106_1766)"/>
<path d="M115.642 11.9535C115.642 11.9535 133.764 9.77519 139.254 9.59579C144.744 9.4164 197.816 10.8442 197.816 10.8442C197.816 10.8442 231.489 12.6162 237.708 13.7218C243.93 14.8275 287.661 19.8139 287.661 19.8139C287.661 19.8139 231.478 18.6607 227.452 18.657C223.426 18.6533 179.87 20.2569 174.563 19.7041C169.256 19.1513 142.588 18.5984 136.315 17.8333C125.7 16.5409 116.737 13.0555 116.737 13.0555C116.737 13.0555 116.631 11.2177 115.639 11.9572L115.642 11.9535Z" fill="url(#paint1_linear_106_1766)"/>
<path d="M125.854 25.2873C125.854 25.2873 125.989 25.3824 126.245 25.5435C127.512 26.3343 131.71 28.7177 137.035 29.1827C143.44 29.7391 168.326 32.8767 179.672 32.5216C191.019 32.1665 225.241 33.1769 229.45 32.6021C233.659 32.0273 268.614 31.9505 272.274 32.8328C275.934 33.7151 297.163 34.8354 297.163 34.8354C297.163 34.8354 255.576 28.0441 244.464 26.9128C234.45 25.8913 210.608 23.4713 197.252 22.9917C185.177 22.5597 137.043 22.2302 131.735 23.1382C126.428 24.0498 126.015 23.9693 125.854 25.2909V25.2873Z" fill="url(#paint2_linear_106_1766)"/>
<path d="M269.126 6.67055C269.126 6.67055 244.131 2.58843 227.719 0.227017L104.307 0.106201C105.719 0.530888 107.301 0.875032 108.999 1.02148C115.404 1.57796 140.289 4.71186 151.636 4.35674C162.982 4.00161 197.205 5.01207 201.414 4.43728C205.623 3.86249 240.577 3.7856 244.237 4.66793C247.897 5.55025 269.123 6.67055 269.123 6.67055H269.126Z" fill="url(#paint3_linear_106_1766)"/>
<path d="M137.943 37.2371C137.943 37.2371 176.554 39.2873 187.168 40.3966C197.783 41.5059 240.237 42.8276 243.9 42.099C247.561 41.3704 299.531 45.632 303.736 47.8323C307.942 50.0326 260.547 47.4222 248.651 47.7774C236.756 48.1325 208.939 49.3553 197.409 48.6267C185.88 47.8982 144.597 42.6335 139.403 40.4845C134.21 38.3354 137.943 37.2334 137.943 37.2334V37.2371Z" fill="url(#paint4_linear_106_1766)"/>
<path d="M149.348 51.3945C149.348 51.3945 198.5 54.6859 207.468 55.6085C216.435 56.5347 259.251 63.348 266.019 65.735C272.787 68.1221 297.672 72.7241 302.796 71.8125C302.796 71.8125 274.979 70.9265 258.695 69.3888C243.864 67.9866 220.633 66.2403 208.921 64.2157C197.208 62.1911 154.213 54.0928 154.213 54.0928L149.345 51.3945H149.348Z" fill="url(#paint5_linear_106_1766)"/>
<path d="M160.977 62.5205C160.977 62.5205 211.117 68.0597 218.616 69.7182C226.12 71.373 257.59 77.8092 264.174 79.8302C270.759 81.8511 299.121 87.5514 300.951 87.7381C302.781 87.9212 268.929 84.5933 262.34 83.6743C255.752 82.7517 218.975 76.8647 208.727 75.111C198.482 73.3574 163.352 64.7208 163.352 64.7208L160.977 62.5205Z" fill="url(#paint6_linear_106_1766)"/>
<path d="M297.097 101.281C297.097 101.281 265.814 91.7288 258.677 90.0776C251.54 88.4228 217.145 79.2371 209.825 78.6806C202.505 78.1241 170.391 74.485 170.391 74.485L173.359 77.7434C173.359 77.7434 221.526 88.9463 228.115 89.5028C234.703 90.0593 272.761 97.6012 272.761 97.6012L297.097 101.288V101.281Z" fill="url(#paint7_linear_106_1766)"/>
<path d="M181.462 86.6289C181.462 86.6289 220.131 90.9527 226.042 92.4244C231.954 93.8962 289.403 106.582 294.341 110.613C299.278 114.644 242.195 101.149 227.554 98.6117C212.917 96.0709 182.556 87.8297 182.556 87.8297L181.462 86.6289Z" fill="url(#paint8_linear_106_1766)"/>
<path d="M190.902 96.8177C190.902 96.8177 225.637 100.797 235.054 103.049C246.58 105.806 287.563 119.392 290.121 120.128C292.683 120.864 231.46 107.439 226.025 106.886C220.589 106.329 192.959 98.9522 192.959 98.9522L190.898 96.8177H190.902Z" fill="url(#paint9_linear_106_1766)"/>
<path d="M200.791 107.058C200.791 107.058 233.718 111.297 256.264 121.007C265.66 125.052 287.727 134.403 287.727 134.403C287.727 134.403 250.185 123.932 244.255 122.46C238.326 120.988 202.105 109.423 202.105 109.423L200.791 107.058Z" fill="url(#paint10_linear_106_1766)"/>
<path d="M211.421 118.067C211.421 118.067 230.278 121.351 237.595 124.836C244.911 128.321 281.494 146.48 283.507 148.315C285.52 150.145 281.494 148.494 278.566 147.03C275.638 145.565 235.025 130.511 235.025 130.511C235.025 130.511 218.024 123.342 214.722 120.706L211.421 118.07V118.067Z" fill="url(#paint11_linear_106_1766)"/>
<path d="M222.525 129.566C222.525 129.566 247.198 137.848 256.18 143.647C266.198 150.116 280.568 157.218 280.443 158.317C280.319 159.415 255.686 147.674 254.101 146.821C252.516 145.964 225.695 132.857 225.695 132.857L222.521 129.57L222.525 129.566Z" fill="url(#paint12_linear_106_1766)"/>
<path d="M230.937 138.28C230.937 138.28 250.504 148.271 255.807 151.335C262.999 155.49 276.901 165.635 276.901 165.635C276.535 166.613 262.879 157.566 259.584 155.732C256.29 153.898 234.717 141.578 233.689 141.132C232.657 140.685 230.937 137.76 230.937 138.28Z" fill="url(#paint13_linear_106_1766)"/>
<path d="M273.723 170.757C273.723 170.757 260.803 158.053 254.584 154.506C248.366 150.962 235.537 143.043 235.537 143.043C235.537 143.043 248.252 153.924 250.924 156.091C255.133 159.503 269.379 168.989 273.723 170.757Z" fill="url(#paint14_linear_106_1766)"/>
<path d="M268.958 177.706C268.958 177.706 256.14 161.517 252.996 158.361C249.852 155.205 234.641 142.113 234.641 142.113C234.641 142.113 242.265 153.151 243.608 154.495C244.948 155.838 259.573 170.618 262.256 172.573C264.939 174.528 267.845 177.373 268.962 177.706H268.958Z" fill="url(#paint15_linear_106_1766)"/>
<path d="M229.099 137.485C229.099 137.485 243.831 166.012 248.823 172.071C253.889 178.218 258.449 185.629 259.181 185.262C259.913 184.896 257.842 181.843 257.721 181.477C257.6 181.111 246.111 160.074 244.222 156.446C242.334 152.818 230.303 138.58 230.303 138.58L229.099 137.485Z" fill="url(#paint16_linear_106_1766)"/>
<path d="M101.711 2.14905C101.711 2.14905 98.0914 20.0408 97.4801 25.5032C96.8652 30.9619 94.0469 83.9929 94.0469 83.9929C94.0469 83.9929 93.1246 117.708 93.7285 123.998C94.3324 130.287 95.8111 174.294 95.8111 174.294C95.8111 174.294 99.1455 118.184 99.4639 114.171C99.7824 110.155 104.859 66.8553 104.727 61.5211C104.599 56.1868 106.18 29.5524 105.92 23.237C105.481 12.5502 102.721 3.33524 102.721 3.33524C102.721 3.33524 100.899 3.08263 101.715 2.15271L101.711 2.14905Z" fill="url(#paint17_linear_106_1766)"/>
<path d="M34.2296 45.8955C34.4858 42.6555 37.8384 13.8536 39.0573 0.0402802L29.6617 0.0292969C29.1712 8.96237 28.8126 15.7171 28.8126 15.7171C28.8126 15.7171 27.8902 49.4321 28.4941 55.7219C29.098 62.0117 30.5767 106.018 30.5767 106.018C30.5767 106.018 33.9111 49.9081 34.2296 45.8955Z" fill="url(#paint18_linear_106_1766)"/>
<path d="M18.1798 19.4075C18.3079 17.7636 19.2376 9.5335 20.2807 0.0219706L12.5103 0.0146484C12.2906 10.4561 12.0674 25.2799 12.448 29.2375C13.052 35.5273 14.5307 79.5337 14.5307 79.5337C14.5307 79.5337 17.865 23.4237 18.1835 19.4075H18.1798Z" fill="url(#paint19_linear_106_1766)"/>
<path d="M2.21804 52.9177C2.21804 52.9177 4.40314 16.1384 5.40602 0.00390625H0C0.0329412 1.10224 0.0768629 1.99554 0.135425 2.62159C0.739348 8.91136 2.21804 52.9177 2.21804 52.9177Z" fill="url(#paint20_linear_106_1766)"/>
<path d="M63.6319 90.9051C63.9503 86.8888 69.0269 43.589 68.8952 38.2548C68.7671 32.9462 70.33 6.55704 70.092 0.0732402L61.9446 0.065918C61.8165 0.911631 61.714 1.65117 61.6481 2.24427C61.0332 7.70297 58.2149 60.734 58.2149 60.734C58.2149 60.734 57.2925 94.449 57.8965 100.739C58.5004 107.029 59.9791 151.035 59.9791 151.035C59.9791 151.035 63.3135 94.9249 63.6319 90.9087V90.9051Z" fill="url(#paint21_linear_106_1766)"/>
<path d="M114.185 13.396C114.185 13.396 114.269 13.5388 114.408 13.806C115.096 15.1314 117.139 19.51 117.172 24.8552C117.212 31.2841 118.354 56.348 117.095 67.6352C115.836 78.9223 114.108 113.121 113.2 117.272C112.293 121.424 109.423 156.27 110.012 159.99C110.602 163.71 110.023 184.962 110.023 184.962C110.023 184.962 106.576 142.955 106.334 131.785C106.118 121.717 105.606 97.7513 106.195 84.3993C106.729 72.325 110.243 24.3061 111.572 19.0853C112.9 13.8646 112.856 13.4473 114.185 13.3923V13.396Z" fill="url(#paint22_linear_106_1766)"/>
<path d="M126.886 25.3933C126.886 25.3933 126.974 25.5324 127.124 25.796C127.86 27.0957 130.063 31.3938 130.294 36.7354C130.572 43.1606 132.636 68.1622 131.794 79.4897C130.952 90.8135 130.491 125.056 129.734 129.237C128.98 133.418 127.398 168.348 128.127 172.042C128.852 175.736 129.06 197 129.06 197C129.06 197 124.064 155.146 123.409 143.998C122.82 133.945 121.425 110.016 121.52 96.6492C121.608 84.564 123.347 36.4462 124.481 31.1815C125.616 25.9168 125.557 25.4995 126.882 25.397L126.886 25.3933Z" fill="url(#paint23_linear_106_1766)"/>
<path d="M85.9292 142.395C85.34 138.675 88.2095 103.829 89.1172 99.6771C90.0249 95.5254 91.7525 61.3234 93.0116 50.0399C94.2707 38.7527 93.1324 13.6925 93.0885 7.25998C93.0702 4.52148 92.5248 2.04292 91.9062 0.0915527H87.8435C87.7373 0.512579 87.6202 0.977538 87.4885 1.49009C86.1562 6.71082 82.6424 54.7298 82.1117 66.8041C81.5224 80.1561 82.0312 104.122 82.2508 114.19C82.4924 125.36 85.9402 167.367 85.9402 167.367C85.9402 167.367 86.5185 146.111 85.9329 142.395H85.9292Z" fill="url(#paint24_linear_106_1766)"/>
<path d="M46.5315 104.627C45.9422 100.907 48.8118 66.0609 49.7195 61.9092C50.6272 57.7575 52.3548 23.5555 53.6139 12.272C53.9726 9.06489 54.1373 4.74479 54.1849 0.0549286L44.6209 0.0439453C43.7096 12.1732 42.9373 23.8813 42.7103 29.0362C42.1211 42.3882 42.6298 66.3574 42.8494 76.4218C43.091 87.5881 46.5388 129.599 46.5388 129.599C46.5388 129.599 47.1172 108.347 46.5279 104.627H46.5315Z" fill="url(#paint25_linear_106_1766)"/>
<path d="M74.7073 103.367C76.0103 91.5348 79.4508 63.8972 79.6448 52.3427C79.8022 42.9154 78.5321 13.4875 77.123 0.0769043H72.8369C72.5515 11.9718 72.072 33.8579 72.2586 41.4766C72.5149 52.1487 70.4469 94.5845 69.4257 98.176C68.4082 101.768 68.507 153.927 70.3627 158.295C72.222 162.666 73.4043 115.2 74.7073 103.367Z" fill="url(#paint26_linear_106_1766)"/>
<path d="M138.327 38.9065C138.327 38.9065 137.679 88.1775 137.888 97.1912C138.093 106.205 141.468 149.439 143.305 156.38C145.142 163.318 147.741 188.499 146.424 193.537C146.424 193.537 147.763 165.731 147.529 149.369C147.317 134.472 147.43 111.166 146.347 99.3292C145.263 87.4893 140.626 43.9735 140.626 43.9735L138.327 38.9065Z" fill="url(#paint27_linear_106_1766)"/>
<path d="M148.484 51.3909C148.484 51.3909 150.003 101.826 151.054 109.438C152.104 117.049 156.006 148.941 157.496 155.67C158.985 162.399 162.404 191.131 162.44 192.969C162.477 194.807 161.866 160.788 161.471 154.147C161.079 147.506 158.147 110.364 157.217 100.007C156.288 89.6493 150.486 53.9353 150.486 53.9353L148.484 51.3909Z" fill="url(#paint28_linear_106_1766)"/>
<path d="M176.243 190.205C176.243 190.205 169.222 158.251 168.143 151.002C167.063 143.757 160.654 108.727 160.683 101.383C160.713 94.0389 159.647 61.7297 159.647 61.7297L162.656 64.9515C162.656 64.9515 169.976 113.871 170.002 120.483C170.031 127.095 174.508 165.643 174.508 165.643L176.235 190.201L176.243 190.205Z" fill="url(#paint29_linear_106_1766)"/>
<path d="M170.873 73.7418C170.873 73.7418 172.096 112.641 173.087 118.652C174.079 124.664 182.139 182.96 185.762 188.202C189.386 193.445 180.496 135.453 179.134 120.655C177.772 105.857 171.982 74.928 171.982 74.928L170.873 73.7382V73.7418Z" fill="url(#paint30_linear_106_1766)"/>
<path d="M180.272 83.9636C180.272 83.9636 181.466 118.912 182.959 128.486C184.785 140.198 195.056 182.143 195.583 184.757C196.11 187.371 187.622 125.257 187.501 119.791C187.38 114.329 182.234 86.1896 182.234 86.1896L180.272 83.9673V83.9636Z" fill="url(#paint31_linear_106_1766)"/>
<path d="M189.69 94.6431C189.69 94.6431 191.286 127.813 199.163 151.068C202.446 160.759 210.001 183.509 210.001 183.509C210.001 183.509 202.563 145.239 201.571 139.213C200.579 133.187 191.941 96.1441 191.941 96.1441L189.69 94.6431Z" fill="url(#paint32_linear_106_1766)"/>
<path d="M199.814 106.121C199.814 106.121 201.578 125.188 204.47 132.759C207.358 140.334 222.533 178.259 224.198 180.412C225.863 182.564 224.538 178.42 223.312 175.385C222.082 172.35 210.326 130.654 210.326 130.654C210.326 130.654 204.539 113.132 202.175 109.628L199.811 106.124L199.814 106.121Z" fill="url(#paint33_linear_106_1766)"/>
<path d="M210.389 118.111C210.389 118.111 216.669 143.376 221.731 152.792C227.379 163.3 233.308 178.193 234.414 178.156C235.519 178.12 225.783 152.624 225.059 150.973C224.334 149.325 213.412 121.534 213.412 121.534L210.389 118.107V118.111Z" fill="url(#paint34_linear_106_1766)"/>
<path d="M218.397 127.194C218.397 127.194 226.789 147.498 229.421 153.034C232.99 160.539 241.986 175.206 241.986 175.206C242.989 174.916 235.065 160.58 233.502 157.153C231.939 153.722 221.383 131.229 221.017 130.167C220.655 129.105 217.877 127.154 218.397 127.194Z" fill="url(#paint35_linear_106_1766)"/>
<defs>
<linearGradient id="paint0_linear_106_1766" x1="237.573" y1="72.7936" x2="100.46" y2="72.7936" gradientUnits="userSpaceOnUse">
<stop offset="0.01" stop-color="#1D494D"/>
<stop offset="0.33" stop-color="#1F4B4D"/>
<stop offset="0.52" stop-color="#27524E"/>
<stop offset="0.68" stop-color="#365F4F"/>
<stop offset="0.82" stop-color="#4A7252"/>
<stop offset="0.95" stop-color="#648955"/>
<stop offset="0.98" stop-color="#6D9156"/>
</linearGradient>
<linearGradient id="paint1_linear_106_1766" x1="287.658" y1="14.6994" x2="115.639" y2="14.6994" gradientUnits="userSpaceOnUse">
<stop offset="0.01" stop-color="#1D494D"/>
<stop offset="0.33" stop-color="#1F4B4D"/>
<stop offset="0.52" stop-color="#27524E"/>
<stop offset="0.68" stop-color="#365F4F"/>
<stop offset="0.82" stop-color="#4A7252"/>
<stop offset="0.95" stop-color="#648955"/>
<stop offset="0.98" stop-color="#6D9156"/>
</linearGradient>
<linearGradient id="paint2_linear_106_1766" x1="297.159" y1="28.6921" x2="125.85" y2="28.6921" gradientUnits="userSpaceOnUse">
<stop offset="0.01" stop-color="#1D494D"/>
<stop offset="0.33" stop-color="#1F4B4D"/>
<stop offset="0.52" stop-color="#27524E"/>
<stop offset="0.68" stop-color="#365F4F"/>
<stop offset="0.82" stop-color="#4A7252"/>
<stop offset="0.95" stop-color="#648955"/>
<stop offset="0.98" stop-color="#6D9156"/>
</linearGradient>
<linearGradient id="paint3_linear_106_1766" x1="269.126" y1="3.38654" x2="104.31" y2="3.38654" gradientUnits="userSpaceOnUse">
<stop offset="0.01" stop-color="#1D494D"/>
<stop offset="0.33" stop-color="#1F4B4D"/>
<stop offset="0.52" stop-color="#27524E"/>
<stop offset="0.68" stop-color="#365F4F"/>
<stop offset="0.82" stop-color="#4A7252"/>
<stop offset="0.95" stop-color="#648955"/>
<stop offset="0.98" stop-color="#6D9156"/>
</linearGradient>
<linearGradient id="paint4_linear_106_1766" x1="304" y1="43.0472" x2="136.644" y2="43.0472" gradientUnits="userSpaceOnUse">
<stop offset="0.01" stop-color="#1D494D"/>
<stop offset="0.33" stop-color="#1F4B4D"/>
<stop offset="0.52" stop-color="#27524E"/>
<stop offset="0.68" stop-color="#365F4F"/>
<stop offset="0.82" stop-color="#4A7252"/>
<stop offset="0.95" stop-color="#648955"/>
<stop offset="0.98" stop-color="#6D9156"/>
</linearGradient>
<linearGradient id="paint5_linear_106_1766" x1="302.796" y1="61.6639" x2="149.345" y2="61.6639" gradientUnits="userSpaceOnUse">
<stop offset="0.01" stop-color="#1D494D"/>
<stop offset="0.33" stop-color="#1F4B4D"/>
<stop offset="0.52" stop-color="#27524E"/>
<stop offset="0.68" stop-color="#365F4F"/>
<stop offset="0.82" stop-color="#4A7252"/>
<stop offset="0.95" stop-color="#648955"/>
<stop offset="0.98" stop-color="#6D9156"/>
</linearGradient>
<linearGradient id="paint6_linear_106_1766" x1="301.021" y1="75.133" x2="160.977" y2="75.133" gradientUnits="userSpaceOnUse">
<stop offset="0.01" stop-color="#1D494D"/>
<stop offset="0.33" stop-color="#1F4B4D"/>
<stop offset="0.52" stop-color="#27524E"/>
<stop offset="0.68" stop-color="#365F4F"/>
<stop offset="0.82" stop-color="#4A7252"/>
<stop offset="0.95" stop-color="#648955"/>
<stop offset="0.98" stop-color="#6D9156"/>
</linearGradient>
<linearGradient id="paint7_linear_106_1766" x1="297.094" y1="87.8809" x2="170.387" y2="87.8809" gradientUnits="userSpaceOnUse">
<stop offset="0.01" stop-color="#1D494D"/>
<stop offset="0.33" stop-color="#1F4B4D"/>
<stop offset="0.52" stop-color="#27524E"/>
<stop offset="0.68" stop-color="#365F4F"/>
<stop offset="0.82" stop-color="#4A7252"/>
<stop offset="0.95" stop-color="#648955"/>
<stop offset="0.98" stop-color="#6D9156"/>
</linearGradient>
<linearGradient id="paint8_linear_106_1766" x1="294.641" y1="98.9924" x2="181.462" y2="98.9924" gradientUnits="userSpaceOnUse">
<stop offset="0.01" stop-color="#1D494D"/>
<stop offset="0.33" stop-color="#1F4B4D"/>
<stop offset="0.52" stop-color="#27524E"/>
<stop offset="0.68" stop-color="#365F4F"/>
<stop offset="0.82" stop-color="#4A7252"/>
<stop offset="0.95" stop-color="#648955"/>
<stop offset="0.98" stop-color="#6D9156"/>
</linearGradient>
<linearGradient id="paint9_linear_106_1766" x1="290.198" y1="108.486" x2="190.898" y2="108.486" gradientUnits="userSpaceOnUse">
<stop offset="0.01" stop-color="#1D494D"/>
<stop offset="0.33" stop-color="#1F4B4D"/>
<stop offset="0.52" stop-color="#27524E"/>
<stop offset="0.68" stop-color="#365F4F"/>
<stop offset="0.82" stop-color="#4A7252"/>
<stop offset="0.95" stop-color="#648955"/>
<stop offset="0.98" stop-color="#6D9156"/>
</linearGradient>
<linearGradient id="paint10_linear_106_1766" x1="287.727" y1="120.732" x2="200.791" y2="120.732" gradientUnits="userSpaceOnUse">
<stop offset="0.01" stop-color="#1D494D"/>
<stop offset="0.33" stop-color="#1F4B4D"/>
<stop offset="0.52" stop-color="#27524E"/>
<stop offset="0.68" stop-color="#365F4F"/>
<stop offset="0.82" stop-color="#4A7252"/>
<stop offset="0.95" stop-color="#648955"/>
<stop offset="0.98" stop-color="#6D9156"/>
</linearGradient>
<linearGradient id="paint11_linear_106_1766" x1="284.049" y1="133.593" x2="211.417" y2="133.593" gradientUnits="userSpaceOnUse">
<stop offset="0.01" stop-color="#1D494D"/>
<stop offset="0.33" stop-color="#1F4B4D"/>
<stop offset="0.52" stop-color="#27524E"/>
<stop offset="0.68" stop-color="#365F4F"/>
<stop offset="0.82" stop-color="#4A7252"/>
<stop offset="0.95" stop-color="#648955"/>
<stop offset="0.98" stop-color="#6D9156"/>
</linearGradient>
<linearGradient id="paint12_linear_106_1766" x1="280.447" y1="143.976" x2="222.525" y2="143.976" gradientUnits="userSpaceOnUse">
<stop offset="0.01" stop-color="#1D494D"/>
<stop offset="0.33" stop-color="#1F4B4D"/>
<stop offset="0.52" stop-color="#27524E"/>
<stop offset="0.68" stop-color="#365F4F"/>
<stop offset="0.82" stop-color="#4A7252"/>
<stop offset="0.95" stop-color="#648955"/>
<stop offset="0.98" stop-color="#6D9156"/>
</linearGradient>
<linearGradient id="paint13_linear_106_1766" x1="276.901" y1="151.961" x2="230.937" y2="151.961" gradientUnits="userSpaceOnUse">
<stop offset="0.01" stop-color="#1D494D"/>
<stop offset="0.33" stop-color="#1F4B4D"/>
<stop offset="0.52" stop-color="#27524E"/>
<stop offset="0.68" stop-color="#365F4F"/>
<stop offset="0.82" stop-color="#4A7252"/>
<stop offset="0.95" stop-color="#648955"/>
<stop offset="0.98" stop-color="#6D9156"/>
</linearGradient>
<linearGradient id="paint14_linear_106_1766" x1="273.723" y1="156.9" x2="235.533" y2="156.9" gradientUnits="userSpaceOnUse">
<stop offset="0.01" stop-color="#1D494D"/>
<stop offset="0.33" stop-color="#1F4B4D"/>
<stop offset="0.52" stop-color="#27524E"/>
<stop offset="0.68" stop-color="#365F4F"/>
<stop offset="0.82" stop-color="#4A7252"/>
<stop offset="0.95" stop-color="#648955"/>
<stop offset="0.98" stop-color="#6D9156"/>
</linearGradient>
<linearGradient id="paint15_linear_106_1766" x1="268.958" y1="159.909" x2="234.637" y2="159.909" gradientUnits="userSpaceOnUse">
<stop offset="0.01" stop-color="#1D494D"/>
<stop offset="0.33" stop-color="#1F4B4D"/>
<stop offset="0.52" stop-color="#27524E"/>
<stop offset="0.68" stop-color="#365F4F"/>
<stop offset="0.82" stop-color="#4A7252"/>
<stop offset="0.95" stop-color="#648955"/>
<stop offset="0.98" stop-color="#6D9156"/>
</linearGradient>
<linearGradient id="paint16_linear_106_1766" x1="259.339" y1="161.377" x2="229.099" y2="161.377" gradientUnits="userSpaceOnUse">
<stop offset="0.01" stop-color="#1D494D"/>
<stop offset="0.33" stop-color="#1F4B4D"/>
<stop offset="0.52" stop-color="#27524E"/>
<stop offset="0.68" stop-color="#365F4F"/>
<stop offset="0.82" stop-color="#4A7252"/>
<stop offset="0.95" stop-color="#648955"/>
<stop offset="0.98" stop-color="#6D9156"/>
</linearGradient>
<linearGradient id="paint17_linear_106_1766" x1="105.946" y1="88.2215" x2="93.5199" y2="88.2215" gradientUnits="userSpaceOnUse">
<stop offset="0.01" stop-color="#1D494D"/>
<stop offset="0.33" stop-color="#1F4B4D"/>
<stop offset="0.52" stop-color="#27524E"/>
<stop offset="0.68" stop-color="#365F4F"/>
<stop offset="0.82" stop-color="#4A7252"/>
<stop offset="0.95" stop-color="#648955"/>
<stop offset="0.98" stop-color="#6D9156"/>
</linearGradient>
<linearGradient id="paint18_linear_106_1766" x1="39.0573" y1="53.0237" x2="28.2892" y2="53.0237" gradientUnits="userSpaceOnUse">
<stop offset="0.01" stop-color="#1D494D"/>
<stop offset="0.33" stop-color="#1F4B4D"/>
<stop offset="0.52" stop-color="#27524E"/>
<stop offset="0.68" stop-color="#365F4F"/>
<stop offset="0.82" stop-color="#4A7252"/>
<stop offset="0.95" stop-color="#648955"/>
<stop offset="0.98" stop-color="#6D9156"/>
</linearGradient>
<linearGradient id="paint19_linear_106_1766" x1="20.2771" y1="39.7705" x2="12.2394" y2="39.7705" gradientUnits="userSpaceOnUse">
<stop offset="0.01" stop-color="#1D494D"/>
<stop offset="0.33" stop-color="#1F4B4D"/>
<stop offset="0.52" stop-color="#27524E"/>
<stop offset="0.68" stop-color="#365F4F"/>
<stop offset="0.82" stop-color="#4A7252"/>
<stop offset="0.95" stop-color="#648955"/>
<stop offset="0.98" stop-color="#6D9156"/>
</linearGradient>
<linearGradient id="paint20_linear_106_1766" x1="5.40236" y1="26.459" x2="0" y2="26.459" gradientUnits="userSpaceOnUse">
<stop offset="0.01" stop-color="#1D494D"/>
<stop offset="0.33" stop-color="#1F4B4D"/>
<stop offset="0.52" stop-color="#27524E"/>
<stop offset="0.68" stop-color="#365F4F"/>
<stop offset="0.82" stop-color="#4A7252"/>
<stop offset="0.95" stop-color="#648955"/>
<stop offset="0.98" stop-color="#6D9156"/>
</linearGradient>
<linearGradient id="paint21_linear_106_1766" x1="70.1177" y1="75.5468" x2="57.6915" y2="75.5468" gradientUnits="userSpaceOnUse">
<stop offset="0.01" stop-color="#1D494D"/>
<stop offset="0.33" stop-color="#1F4B4D"/>
<stop offset="0.52" stop-color="#27524E"/>
<stop offset="0.68" stop-color="#365F4F"/>
<stop offset="0.82" stop-color="#4A7252"/>
<stop offset="0.95" stop-color="#648955"/>
<stop offset="0.98" stop-color="#6D9156"/>
</linearGradient>
<linearGradient id="paint22_linear_106_1766" x1="117.684" y1="99.1792" x2="105.917" y2="99.1792" gradientUnits="userSpaceOnUse">
<stop offset="0.01" stop-color="#1D494D"/>
<stop offset="0.33" stop-color="#1F4B4D"/>
<stop offset="0.52" stop-color="#27524E"/>
<stop offset="0.68" stop-color="#365F4F"/>
<stop offset="0.82" stop-color="#4A7252"/>
<stop offset="0.95" stop-color="#648955"/>
<stop offset="0.98" stop-color="#6D9156"/>
</linearGradient>
<linearGradient id="paint23_linear_106_1766" x1="131.996" y1="111.195" x2="121.517" y2="111.195" gradientUnits="userSpaceOnUse">
<stop offset="0.01" stop-color="#1D494D"/>
<stop offset="0.33" stop-color="#1F4B4D"/>
<stop offset="0.52" stop-color="#27524E"/>
<stop offset="0.68" stop-color="#365F4F"/>
<stop offset="0.82" stop-color="#4A7252"/>
<stop offset="0.95" stop-color="#648955"/>
<stop offset="0.98" stop-color="#6D9156"/>
</linearGradient>
<linearGradient id="paint24_linear_106_1766" x1="93.6009" y1="83.7257" x2="81.8335" y2="83.7257" gradientUnits="userSpaceOnUse">
<stop offset="0.01" stop-color="#1D494D"/>
<stop offset="0.33" stop-color="#1F4B4D"/>
<stop offset="0.52" stop-color="#27524E"/>
<stop offset="0.68" stop-color="#365F4F"/>
<stop offset="0.82" stop-color="#4A7252"/>
<stop offset="0.95" stop-color="#648955"/>
<stop offset="0.98" stop-color="#6D9156"/>
</linearGradient>
<linearGradient id="paint25_linear_106_1766" x1="54.1849" y1="64.8234" x2="42.4358" y2="64.8234" gradientUnits="userSpaceOnUse">
<stop offset="0.01" stop-color="#1D494D"/>
<stop offset="0.33" stop-color="#1F4B4D"/>
<stop offset="0.52" stop-color="#27524E"/>
<stop offset="0.68" stop-color="#365F4F"/>
<stop offset="0.82" stop-color="#4A7252"/>
<stop offset="0.95" stop-color="#648955"/>
<stop offset="0.98" stop-color="#6D9156"/>
</linearGradient>
<linearGradient id="paint26_linear_106_1766" x1="79.6558" y1="79.325" x2="68.7779" y2="79.325" gradientUnits="userSpaceOnUse">
<stop offset="0.01" stop-color="#1D494D"/>
<stop offset="0.33" stop-color="#1F4B4D"/>
<stop offset="0.52" stop-color="#27524E"/>
<stop offset="0.68" stop-color="#365F4F"/>
<stop offset="0.82" stop-color="#4A7252"/>
<stop offset="0.95" stop-color="#648955"/>
<stop offset="0.98" stop-color="#6D9156"/>
</linearGradient>
<linearGradient id="paint27_linear_106_1766" x1="147.554" y1="116.222" x2="137.844" y2="116.222" gradientUnits="userSpaceOnUse">
<stop offset="0.01" stop-color="#1D494D"/>
<stop offset="0.33" stop-color="#1F4B4D"/>
<stop offset="0.52" stop-color="#27524E"/>
<stop offset="0.68" stop-color="#365F4F"/>
<stop offset="0.82" stop-color="#4A7252"/>
<stop offset="0.95" stop-color="#648955"/>
<stop offset="0.98" stop-color="#6D9156"/>
</linearGradient>
<linearGradient id="paint28_linear_106_1766" x1="162.44" y1="122.215" x2="148.484" y2="122.215" gradientUnits="userSpaceOnUse">
<stop offset="0.01" stop-color="#1D494D"/>
<stop offset="0.33" stop-color="#1F4B4D"/>
<stop offset="0.52" stop-color="#27524E"/>
<stop offset="0.68" stop-color="#365F4F"/>
<stop offset="0.82" stop-color="#4A7252"/>
<stop offset="0.95" stop-color="#648955"/>
<stop offset="0.98" stop-color="#6D9156"/>
</linearGradient>
<linearGradient id="paint29_linear_106_1766" x1="176.243" y1="125.967" x2="159.651" y2="125.967" gradientUnits="userSpaceOnUse">
<stop offset="0.01" stop-color="#1D494D"/>
<stop offset="0.33" stop-color="#1F4B4D"/>
<stop offset="0.52" stop-color="#27524E"/>
<stop offset="0.68" stop-color="#365F4F"/>
<stop offset="0.82" stop-color="#4A7252"/>
<stop offset="0.95" stop-color="#648955"/>
<stop offset="0.98" stop-color="#6D9156"/>
</linearGradient>
<linearGradient id="paint30_linear_106_1766" x1="186.626" y1="131.141" x2="170.873" y2="131.141" gradientUnits="userSpaceOnUse">
<stop offset="0.01" stop-color="#1D494D"/>
<stop offset="0.33" stop-color="#1F4B4D"/>
<stop offset="0.52" stop-color="#27524E"/>
<stop offset="0.68" stop-color="#365F4F"/>
<stop offset="0.82" stop-color="#4A7252"/>
<stop offset="0.95" stop-color="#648955"/>
<stop offset="0.98" stop-color="#6D9156"/>
</linearGradient>
<linearGradient id="paint31_linear_106_1766" x1="195.605" y1="134.399" x2="180.272" y2="134.399" gradientUnits="userSpaceOnUse">
<stop offset="0.01" stop-color="#1D494D"/>
<stop offset="0.33" stop-color="#1F4B4D"/>
<stop offset="0.52" stop-color="#27524E"/>
<stop offset="0.68" stop-color="#365F4F"/>
<stop offset="0.82" stop-color="#4A7252"/>
<stop offset="0.95" stop-color="#648955"/>
<stop offset="0.98" stop-color="#6D9156"/>
</linearGradient>
<linearGradient id="paint32_linear_106_1766" x1="210.001" y1="139.078" x2="189.69" y2="139.078" gradientUnits="userSpaceOnUse">
<stop offset="0.01" stop-color="#1D494D"/>
<stop offset="0.33" stop-color="#1F4B4D"/>
<stop offset="0.52" stop-color="#27524E"/>
<stop offset="0.68" stop-color="#365F4F"/>
<stop offset="0.82" stop-color="#4A7252"/>
<stop offset="0.95" stop-color="#648955"/>
<stop offset="0.98" stop-color="#6D9156"/>
</linearGradient>
<linearGradient id="paint33_linear_106_1766" x1="224.981" y1="143.563" x2="199.811" y2="143.563" gradientUnits="userSpaceOnUse">
<stop offset="0.01" stop-color="#1D494D"/>
<stop offset="0.33" stop-color="#1F4B4D"/>
<stop offset="0.52" stop-color="#27524E"/>
<stop offset="0.68" stop-color="#365F4F"/>
<stop offset="0.82" stop-color="#4A7252"/>
<stop offset="0.95" stop-color="#648955"/>
<stop offset="0.98" stop-color="#6D9156"/>
</linearGradient>
<linearGradient id="paint34_linear_106_1766" x1="234.498" y1="148.135" x2="210.389" y2="148.135" gradientUnits="userSpaceOnUse">
<stop offset="0.01" stop-color="#1D494D"/>
<stop offset="0.33" stop-color="#1F4B4D"/>
<stop offset="0.52" stop-color="#27524E"/>
<stop offset="0.68" stop-color="#365F4F"/>
<stop offset="0.82" stop-color="#4A7252"/>
<stop offset="0.95" stop-color="#648955"/>
<stop offset="0.98" stop-color="#6D9156"/>
</linearGradient>
<linearGradient id="paint35_linear_106_1766" x1="242.074" y1="151.2" x2="218.331" y2="151.2" gradientUnits="userSpaceOnUse">
<stop offset="0.01" stop-color="#1D494D"/>
<stop offset="0.33" stop-color="#1F4B4D"/>
<stop offset="0.52" stop-color="#27524E"/>
<stop offset="0.68" stop-color="#365F4F"/>
<stop offset="0.82" stop-color="#4A7252"/>
<stop offset="0.95" stop-color="#648955"/>
<stop offset="0.98" stop-color="#6D9156"/>
</linearGradient>
</defs>
</svg>
