<svg width="310" height="163" viewBox="0 0 310 163" fill="none" xmlns="http://www.w3.org/2000/svg">
<g clip-path="url(#clip0_106_1925)">
<path d="M204.195 200.556L207.554 200.56L152.191 138.338L87.8751 71.2239L67.7352 52.8978L118.07 105.059L169.338 161.326L193.087 188.053L204.195 200.556Z" fill="url(#paint0_linear_106_1925)"/>
<path d="M169.334 163.007C169.334 163.007 129.961 160.915 119.137 159.783C108.313 158.651 65.0216 157.303 61.2855 158.046C57.5531 158.79 4.5571 154.442 0.2686 152.197C-4.01991 149.952 44.3106 152.615 56.4409 152.253C68.5711 151.89 96.9371 150.643 108.694 151.386C120.451 152.129 162.549 157.501 167.845 159.694C173.141 161.886 169.334 163.011 169.334 163.011L169.334 163.007Z" fill="url(#paint1_linear_106_1925)"/>
<path d="M157.704 148.562C157.704 148.562 107.582 145.203 98.4379 144.262C89.2935 143.317 45.6322 136.365 38.731 133.93C31.8299 131.494 6.45344 126.799 1.22812 127.729C1.22812 127.729 29.5942 128.633 46.1995 130.202C61.3231 131.633 85.0125 133.414 96.9561 135.48C108.9 137.546 152.744 145.809 152.744 145.809L157.708 148.562L157.704 148.562Z" fill="url(#paint2_linear_106_1925)"/>
<path d="M145.847 137.21C145.847 137.21 94.7169 131.558 87.0692 129.866C79.4179 128.178 47.3269 121.611 40.6123 119.549C33.8978 117.487 4.97561 111.671 3.10942 111.48C1.24324 111.294 35.764 114.689 42.4823 115.627C49.2005 116.568 86.7034 122.575 97.1541 124.364C107.601 126.153 143.424 134.965 143.424 134.965L145.847 137.21Z" fill="url(#paint3_linear_106_1925)"/>
<path d="M7.03967 97.6633C7.03967 97.6633 38.9403 107.409 46.2184 109.094C53.4966 110.782 88.5697 120.154 96.0344 120.722C103.499 121.29 136.247 125.003 136.247 125.003L133.22 121.678C133.22 121.678 84.102 110.248 77.3838 109.68C70.6655 109.112 31.8563 101.417 31.8563 101.417L7.03967 97.6558L7.03967 97.6633Z" fill="url(#paint4_linear_106_1925)"/>
<path d="M124.956 112.612C124.956 112.612 85.5235 108.201 79.4957 106.699C73.4679 105.197 14.8846 92.2542 9.84958 88.1415C4.8146 84.0288 63.0247 97.7976 77.9542 100.386C92.88 102.979 123.84 111.387 123.84 111.387L124.956 112.612Z" fill="url(#paint5_linear_106_1925)"/>
<path d="M115.33 102.217C115.33 102.217 79.91 98.1564 70.3066 95.8591C58.5533 93.0463 16.7619 79.1841 14.153 78.4333C11.5403 77.6825 73.9718 91.3803 79.5144 91.9444C85.0569 92.5121 113.233 100.039 113.233 100.039L115.334 102.217L115.33 102.217Z" fill="url(#paint6_linear_106_1925)"/>
<path d="M105.245 91.7686C105.245 91.7686 71.6687 87.4429 48.6772 77.5366C39.0962 73.4089 16.5937 63.8686 16.5937 63.8686C16.5937 63.8686 54.8767 74.5519 60.9231 76.0536C66.9696 77.5552 103.905 89.3555 103.905 89.3555L105.245 91.7686Z" fill="url(#paint7_linear_106_1925)"/>
<path d="M94.4062 80.5361C94.4062 80.5361 75.177 77.1854 67.716 73.6293C60.255 70.0732 22.9499 51.5454 20.8971 49.674C18.8443 47.8063 22.9499 49.4909 25.9358 50.9851C28.9217 52.4793 70.3362 67.8394 70.3362 67.8394C70.3362 67.8394 87.673 75.1534 91.0396 77.8429L94.4062 80.5324L94.4062 80.5361Z" fill="url(#paint8_linear_106_1925)"/>
<path d="M83.0832 68.8027C83.0832 68.8027 57.9232 60.3532 48.764 54.4363C38.5485 47.8357 23.8952 40.589 24.0221 39.4684C24.149 38.3477 49.2679 50.3273 50.884 51.1976C52.5001 52.0717 79.851 65.4446 79.851 65.4446L83.0869 68.799L83.0832 68.8027Z" fill="url(#paint9_linear_106_1925)"/>
<path d="M74.5059 59.9127C74.5059 59.9127 54.5526 49.7187 49.1444 46.5921C41.8102 42.3524 27.6347 32.0015 27.6347 32.0015C28.0079 31.0041 41.9334 40.2344 45.2926 42.1059C48.6517 43.9773 70.6503 56.547 71.6991 57.0028C72.7517 57.4585 74.5059 60.4431 74.5059 59.9127Z" fill="url(#paint10_linear_106_1925)"/>
<path d="M30.8746 26.7755C30.8746 26.7755 44.0499 39.7375 50.3912 43.3571C56.7325 46.973 69.8145 55.0527 69.8145 55.0527C69.8145 55.0527 56.8482 43.951 54.1235 41.7396C49.8313 38.2582 35.3049 28.5797 30.8746 26.7755Z" fill="url(#paint11_linear_106_1925)"/>
<path d="M35.7337 19.6861C35.7337 19.6861 48.8045 36.2042 52.0107 39.4241C55.2168 42.644 70.7285 56.002 70.7285 56.002C70.7285 56.002 62.954 44.7396 61.5842 43.3687C60.2181 41.9978 45.3036 26.9179 42.5677 24.9231C39.8319 22.9284 36.8684 20.026 35.73 19.6861L35.7337 19.6861Z" fill="url(#paint12_linear_106_1925)"/>
<path d="M76.3789 60.7236C76.3789 60.7236 61.3561 31.6171 56.2651 25.435C51.0995 19.1632 46.449 11.6027 45.7025 11.9762C44.956 12.3498 47.0685 15.4651 47.1917 15.8386C47.3149 16.2122 59.0308 37.676 60.9567 41.3778C62.8826 45.0796 75.151 59.6067 75.151 59.6067L76.3789 60.7236Z" fill="url(#paint13_linear_106_1925)"/>
<path d="M206.281 198.808C206.281 198.808 209.973 180.553 210.596 174.979C211.223 169.41 214.097 115.302 214.097 115.302C214.097 115.302 215.038 80.9023 214.422 74.4849C213.806 68.0674 212.298 23.1675 212.298 23.1675C212.298 23.1675 208.898 80.4167 208.573 84.5108C208.248 88.6085 203.072 132.788 203.206 138.23C203.337 143.673 201.724 170.848 201.989 177.292C202.437 188.195 205.251 197.597 205.251 197.597C205.251 197.597 207.11 197.855 206.278 198.804L206.281 198.808Z" fill="url(#paint14_linear_106_1925)"/>
<path d="M275.095 154.172C274.833 157.478 271.414 186.865 270.172 200.959L279.753 200.97C280.253 191.855 280.619 184.963 280.619 184.963C280.619 184.963 281.559 150.564 280.943 144.146C280.327 137.729 278.82 92.8289 278.82 92.8289C278.82 92.8289 275.419 150.078 275.095 154.172Z" fill="url(#paint15_linear_106_1925)"/>
<path d="M291.462 181.199C291.331 182.876 290.383 191.273 289.319 200.978L297.243 200.985C297.467 190.332 297.695 175.207 297.307 171.169C296.691 164.752 295.183 119.852 295.183 119.852C295.183 119.852 291.783 177.101 291.458 181.199L291.462 181.199Z" fill="url(#paint16_linear_106_1925)"/>
<path d="M307.738 147.008C307.738 147.008 305.51 184.534 304.487 200.996L310 200.996C309.966 199.875 309.922 198.964 309.862 198.325C309.246 191.908 307.738 147.008 307.738 147.008Z" fill="url(#paint17_linear_106_1925)"/>
<path d="M245.112 108.249C244.787 112.347 239.611 156.526 239.745 161.968C239.876 167.385 238.282 194.31 238.525 200.925L246.833 200.933C246.963 200.07 247.068 199.315 247.135 198.71C247.762 193.141 250.636 139.033 250.636 139.033C250.636 139.033 251.577 104.633 250.961 98.2156C250.345 91.7981 248.837 46.8982 248.837 46.8982C248.837 46.8982 245.437 104.147 245.112 108.245L245.112 108.249Z" fill="url(#paint18_linear_106_1925)"/>
<path d="M193.561 187.332C193.561 187.332 193.475 187.187 193.333 186.914C192.632 185.562 190.549 181.094 190.516 175.64C190.474 169.081 189.31 143.508 190.594 131.992C191.878 120.475 193.64 85.5827 194.565 81.3467C195.491 77.1107 198.417 41.5569 197.816 37.7617C197.215 33.9664 197.805 12.2822 197.805 12.2822C197.805 12.2822 201.321 55.1426 201.567 66.5394C201.787 76.8119 202.31 101.264 201.709 114.887C201.164 127.207 197.581 176.201 196.226 181.527C194.871 186.854 194.916 187.28 193.561 187.336L193.561 187.332Z" fill="url(#paint19_linear_106_1925)"/>
<path d="M180.61 175.091C180.61 175.091 180.52 174.949 180.367 174.68C179.617 173.354 177.37 168.968 177.135 163.518C176.851 156.963 174.746 131.453 175.604 119.896C176.463 108.342 176.933 73.4048 177.706 69.1389C178.475 64.8731 180.087 29.2333 179.344 25.4642C178.605 21.6952 178.393 -0.000228209 178.393 -0.000228209C178.393 -0.000228209 183.487 42.7033 184.155 54.0777C184.756 64.3352 186.178 88.75 186.081 102.388C185.992 114.719 184.219 163.814 183.062 169.185C181.905 174.557 181.964 174.982 180.613 175.087L180.61 175.091Z" fill="url(#paint20_linear_106_1925)"/>
<path d="M222.375 55.7136C222.976 59.5088 220.049 95.0627 219.124 99.2987C218.198 103.535 216.437 138.431 215.153 149.944C213.869 161.46 215.029 187.029 215.074 193.592C215.093 196.386 215.649 198.915 216.28 200.906L220.423 200.906C220.531 200.477 220.65 200.002 220.785 199.479C222.143 194.153 225.726 145.159 226.268 132.839C226.869 119.216 226.35 94.7639 226.126 84.4914C225.879 73.0946 222.364 30.2342 222.364 30.2342C222.364 30.2342 221.774 51.9222 222.371 55.7136L222.375 55.7136Z" fill="url(#paint21_linear_106_1925)"/>
<path d="M262.551 94.2486C263.152 98.0438 260.225 133.598 259.3 137.834C258.374 142.07 256.613 176.966 255.329 188.479C254.963 191.751 254.795 196.159 254.746 200.944L264.499 200.955C265.428 188.58 266.216 176.634 266.447 171.374C267.048 157.751 266.529 133.295 266.305 123.026C266.059 111.633 262.543 68.7692 262.543 68.7692C262.543 68.7692 261.954 90.4534 262.554 94.2486L262.551 94.2486Z" fill="url(#paint22_linear_106_1925)"/>
<path d="M233.818 95.534C232.49 107.607 228.981 135.806 228.783 147.595C228.623 157.214 229.918 187.239 231.355 200.922L235.726 200.922C236.017 188.785 236.506 166.455 236.315 158.682C236.054 147.793 238.163 104.495 239.204 100.831C240.242 97.1664 240.141 43.9477 238.249 39.4913C236.353 35.0312 235.147 83.4611 233.818 95.534Z" fill="url(#paint23_linear_106_1925)"/>
<path d="M168.943 161.304C168.943 161.304 169.603 111.032 169.39 101.836C169.181 92.6389 165.74 48.5272 163.866 41.4448C161.993 34.3662 159.343 8.67384 160.686 3.53389C160.686 3.53389 159.32 31.9045 159.559 48.5982C159.776 63.7977 159.66 87.5774 160.765 99.6541C161.87 111.734 166.599 156.134 166.599 156.134L168.943 161.304Z" fill="url(#paint24_linear_106_1925)"/>
<path d="M158.585 148.565C158.585 148.565 157.036 97.1061 155.965 89.3401C154.894 81.5741 150.915 49.0348 149.396 42.169C147.877 35.3033 144.391 5.98761 144.353 4.11243C144.316 2.23724 144.939 36.9469 145.342 43.723C145.742 50.4991 148.731 88.395 149.68 98.9626C150.628 109.53 156.543 145.969 156.543 145.969L158.585 148.565Z" fill="url(#paint25_linear_106_1925)"/>
<path d="M130.279 6.93271C130.279 6.93271 137.437 39.5356 138.538 46.9318C139.639 54.3242 146.175 90.0648 146.145 97.5581C146.115 105.051 147.201 138.017 147.201 138.017L144.133 134.729C144.133 134.729 136.668 84.8165 136.642 78.0703C136.612 71.3242 132.048 31.9938 132.048 31.9938L130.286 6.93645L130.279 6.93271Z" fill="url(#paint26_linear_106_1925)"/>
<path d="M135.754 125.761C135.754 125.761 134.507 86.0719 133.496 79.9383C132.484 73.8047 124.266 14.3254 120.571 8.97627C116.876 3.62713 125.941 62.7964 127.33 77.8951C128.718 92.9937 134.623 124.551 134.623 124.551L135.754 125.765L135.754 125.761Z" fill="url(#paint27_linear_106_1925)"/>
<path d="M126.169 115.332C126.169 115.332 124.952 79.6736 123.429 69.9054C121.567 57.9557 111.094 15.1589 110.556 12.4918C110.019 9.82467 118.674 73.2001 118.797 78.7771C118.921 84.3503 124.168 113.061 124.168 113.061L126.169 115.328L126.169 115.332Z" fill="url(#paint28_linear_106_1925)"/>
<path d="M116.565 104.436C116.565 104.436 114.938 70.5925 106.906 46.865C103.558 36.9773 95.8545 13.7653 95.8545 13.7653C95.8545 13.7653 103.439 52.8118 104.45 58.9604C105.462 65.1089 114.27 102.904 114.27 102.904L116.565 104.436Z" fill="url(#paint29_linear_106_1925)"/>
<path d="M106.242 92.7246C106.242 92.7246 104.443 73.2705 101.495 65.5456C98.5499 57.817 83.0755 19.1216 81.3773 16.9252C79.679 14.7287 81.0301 18.9572 82.2805 22.0539C83.5346 25.1506 95.523 67.6935 95.523 67.6935C95.523 67.6935 101.424 85.5712 103.835 89.1461L106.246 92.7209L106.242 92.7246Z" fill="url(#paint30_linear_106_1925)"/>
<path d="M95.459 80.4914C95.459 80.4914 89.0542 54.7132 83.8924 45.1056C78.1333 34.3849 72.0868 19.1892 70.9597 19.2265C69.8325 19.2639 79.7606 45.2774 80.4996 46.9621C81.2386 48.6431 92.376 76.9988 92.376 76.9988L95.459 80.4951L95.459 80.4914Z" fill="url(#paint31_linear_106_1925)"/>
<path d="M87.2926 71.224C87.2926 71.224 78.7342 50.5073 76.0506 44.8593C72.4116 37.2016 63.2374 22.2375 63.2374 22.2375C62.2147 22.5326 70.2953 37.1606 71.889 40.6569C73.4828 44.157 84.247 67.1075 84.6202 68.1908C84.9897 69.2741 87.8226 71.2651 87.2926 71.224Z" fill="url(#paint32_linear_106_1925)"/>
</g>
<defs>
<linearGradient id="paint0_linear_106_1925" x1="67.7389" y1="126.729" x2="207.557" y2="126.729" gradientUnits="userSpaceOnUse">
<stop offset="0.01" stop-color="#1D494D"/>
<stop offset="0.33" stop-color="#1F4B4D"/>
<stop offset="0.52" stop-color="#27524E"/>
<stop offset="0.68" stop-color="#365F4F"/>
<stop offset="0.82" stop-color="#4A7252"/>
<stop offset="0.95" stop-color="#648955"/>
<stop offset="0.98" stop-color="#6D9156"/>
</linearGradient>
<linearGradient id="paint1_linear_106_1925" x1="-0.000137837" y1="157.079" x2="170.659" y2="157.079" gradientUnits="userSpaceOnUse">
<stop offset="0.01" stop-color="#1D494D"/>
<stop offset="0.33" stop-color="#1F4B4D"/>
<stop offset="0.52" stop-color="#27524E"/>
<stop offset="0.68" stop-color="#365F4F"/>
<stop offset="0.82" stop-color="#4A7252"/>
<stop offset="0.95" stop-color="#648955"/>
<stop offset="0.98" stop-color="#6D9156"/>
</linearGradient>
<linearGradient id="paint2_linear_106_1925" x1="1.22812" y1="138.084" x2="157.708" y2="138.084" gradientUnits="userSpaceOnUse">
<stop offset="0.01" stop-color="#1D494D"/>
<stop offset="0.33" stop-color="#1F4B4D"/>
<stop offset="0.52" stop-color="#27524E"/>
<stop offset="0.68" stop-color="#365F4F"/>
<stop offset="0.82" stop-color="#4A7252"/>
<stop offset="0.95" stop-color="#648955"/>
<stop offset="0.98" stop-color="#6D9156"/>
</linearGradient>
<linearGradient id="paint3_linear_106_1925" x1="3.0385" y1="124.341" x2="145.847" y2="124.341" gradientUnits="userSpaceOnUse">
<stop offset="0.01" stop-color="#1D494D"/>
<stop offset="0.33" stop-color="#1F4B4D"/>
<stop offset="0.52" stop-color="#27524E"/>
<stop offset="0.68" stop-color="#365F4F"/>
<stop offset="0.82" stop-color="#4A7252"/>
<stop offset="0.95" stop-color="#648955"/>
<stop offset="0.98" stop-color="#6D9156"/>
</linearGradient>
<linearGradient id="paint4_linear_106_1925" x1="7.04341" y1="111.335" x2="136.251" y2="111.335" gradientUnits="userSpaceOnUse">
<stop offset="0.01" stop-color="#1D494D"/>
<stop offset="0.33" stop-color="#1F4B4D"/>
<stop offset="0.52" stop-color="#27524E"/>
<stop offset="0.68" stop-color="#365F4F"/>
<stop offset="0.82" stop-color="#4A7252"/>
<stop offset="0.95" stop-color="#648955"/>
<stop offset="0.98" stop-color="#6D9156"/>
</linearGradient>
<linearGradient id="paint5_linear_106_1925" x1="9.54352" y1="99.9977" x2="124.956" y2="99.9977" gradientUnits="userSpaceOnUse">
<stop offset="0.01" stop-color="#1D494D"/>
<stop offset="0.33" stop-color="#1F4B4D"/>
<stop offset="0.52" stop-color="#27524E"/>
<stop offset="0.68" stop-color="#365F4F"/>
<stop offset="0.82" stop-color="#4A7252"/>
<stop offset="0.95" stop-color="#648955"/>
<stop offset="0.98" stop-color="#6D9156"/>
</linearGradient>
<linearGradient id="paint6_linear_106_1925" x1="14.0746" y1="90.312" x2="115.334" y2="90.312" gradientUnits="userSpaceOnUse">
<stop offset="0.01" stop-color="#1D494D"/>
<stop offset="0.33" stop-color="#1F4B4D"/>
<stop offset="0.52" stop-color="#27524E"/>
<stop offset="0.68" stop-color="#365F4F"/>
<stop offset="0.82" stop-color="#4A7252"/>
<stop offset="0.95" stop-color="#648955"/>
<stop offset="0.98" stop-color="#6D9156"/>
</linearGradient>
<linearGradient id="paint7_linear_106_1925" x1="16.5937" y1="77.8167" x2="105.245" y2="77.8167" gradientUnits="userSpaceOnUse">
<stop offset="0.01" stop-color="#1D494D"/>
<stop offset="0.33" stop-color="#1F4B4D"/>
<stop offset="0.52" stop-color="#27524E"/>
<stop offset="0.68" stop-color="#365F4F"/>
<stop offset="0.82" stop-color="#4A7252"/>
<stop offset="0.95" stop-color="#648955"/>
<stop offset="0.98" stop-color="#6D9156"/>
</linearGradient>
<linearGradient id="paint8_linear_106_1925" x1="20.3447" y1="64.6942" x2="94.41" y2="64.6942" gradientUnits="userSpaceOnUse">
<stop offset="0.01" stop-color="#1D494D"/>
<stop offset="0.33" stop-color="#1F4B4D"/>
<stop offset="0.52" stop-color="#27524E"/>
<stop offset="0.68" stop-color="#365F4F"/>
<stop offset="0.82" stop-color="#4A7252"/>
<stop offset="0.95" stop-color="#648955"/>
<stop offset="0.98" stop-color="#6D9156"/>
</linearGradient>
<linearGradient id="paint9_linear_106_1925" x1="24.0183" y1="54.1001" x2="83.0832" y2="54.1001" gradientUnits="userSpaceOnUse">
<stop offset="0.01" stop-color="#1D494D"/>
<stop offset="0.33" stop-color="#1F4B4D"/>
<stop offset="0.52" stop-color="#27524E"/>
<stop offset="0.68" stop-color="#365F4F"/>
<stop offset="0.82" stop-color="#4A7252"/>
<stop offset="0.95" stop-color="#648955"/>
<stop offset="0.98" stop-color="#6D9156"/>
</linearGradient>
<linearGradient id="paint10_linear_106_1925" x1="27.6347" y1="45.9533" x2="74.5059" y2="45.9533" gradientUnits="userSpaceOnUse">
<stop offset="0.01" stop-color="#1D494D"/>
<stop offset="0.33" stop-color="#1F4B4D"/>
<stop offset="0.52" stop-color="#27524E"/>
<stop offset="0.68" stop-color="#365F4F"/>
<stop offset="0.82" stop-color="#4A7252"/>
<stop offset="0.95" stop-color="#648955"/>
<stop offset="0.98" stop-color="#6D9156"/>
</linearGradient>
<linearGradient id="paint11_linear_106_1925" x1="30.8746" y1="40.9141" x2="69.8182" y2="40.9141" gradientUnits="userSpaceOnUse">
<stop offset="0.01" stop-color="#1D494D"/>
<stop offset="0.33" stop-color="#1F4B4D"/>
<stop offset="0.52" stop-color="#27524E"/>
<stop offset="0.68" stop-color="#365F4F"/>
<stop offset="0.82" stop-color="#4A7252"/>
<stop offset="0.95" stop-color="#648955"/>
<stop offset="0.98" stop-color="#6D9156"/>
</linearGradient>
<linearGradient id="paint12_linear_106_1925" x1="35.7337" y1="37.844" x2="70.7322" y2="37.844" gradientUnits="userSpaceOnUse">
<stop offset="0.01" stop-color="#1D494D"/>
<stop offset="0.33" stop-color="#1F4B4D"/>
<stop offset="0.52" stop-color="#27524E"/>
<stop offset="0.68" stop-color="#365F4F"/>
<stop offset="0.82" stop-color="#4A7252"/>
<stop offset="0.95" stop-color="#648955"/>
<stop offset="0.98" stop-color="#6D9156"/>
</linearGradient>
<linearGradient id="paint13_linear_106_1925" x1="45.542" y1="36.3462" x2="76.3789" y2="36.3462" gradientUnits="userSpaceOnUse">
<stop offset="0.01" stop-color="#1D494D"/>
<stop offset="0.33" stop-color="#1F4B4D"/>
<stop offset="0.52" stop-color="#27524E"/>
<stop offset="0.68" stop-color="#365F4F"/>
<stop offset="0.82" stop-color="#4A7252"/>
<stop offset="0.95" stop-color="#648955"/>
<stop offset="0.98" stop-color="#6D9156"/>
</linearGradient>
<linearGradient id="paint14_linear_106_1925" x1="201.963" y1="110.988" x2="214.634" y2="110.988" gradientUnits="userSpaceOnUse">
<stop offset="0.01" stop-color="#1D494D"/>
<stop offset="0.33" stop-color="#1F4B4D"/>
<stop offset="0.52" stop-color="#27524E"/>
<stop offset="0.68" stop-color="#365F4F"/>
<stop offset="0.82" stop-color="#4A7252"/>
<stop offset="0.95" stop-color="#648955"/>
<stop offset="0.98" stop-color="#6D9156"/>
</linearGradient>
<linearGradient id="paint15_linear_106_1925" x1="270.172" y1="146.899" x2="281.152" y2="146.899" gradientUnits="userSpaceOnUse">
<stop offset="0.01" stop-color="#1D494D"/>
<stop offset="0.33" stop-color="#1F4B4D"/>
<stop offset="0.52" stop-color="#27524E"/>
<stop offset="0.68" stop-color="#365F4F"/>
<stop offset="0.82" stop-color="#4A7252"/>
<stop offset="0.95" stop-color="#648955"/>
<stop offset="0.98" stop-color="#6D9156"/>
</linearGradient>
<linearGradient id="paint16_linear_106_1925" x1="289.323" y1="160.422" x2="297.519" y2="160.422" gradientUnits="userSpaceOnUse">
<stop offset="0.01" stop-color="#1D494D"/>
<stop offset="0.33" stop-color="#1F4B4D"/>
<stop offset="0.52" stop-color="#27524E"/>
<stop offset="0.68" stop-color="#365F4F"/>
<stop offset="0.82" stop-color="#4A7252"/>
<stop offset="0.95" stop-color="#648955"/>
<stop offset="0.98" stop-color="#6D9156"/>
</linearGradient>
<linearGradient id="paint17_linear_106_1925" x1="304.491" y1="174.004" x2="310" y2="174.004" gradientUnits="userSpaceOnUse">
<stop offset="0.01" stop-color="#1D494D"/>
<stop offset="0.33" stop-color="#1F4B4D"/>
<stop offset="0.52" stop-color="#27524E"/>
<stop offset="0.68" stop-color="#365F4F"/>
<stop offset="0.82" stop-color="#4A7252"/>
<stop offset="0.95" stop-color="#648955"/>
<stop offset="0.98" stop-color="#6D9156"/>
</linearGradient>
<linearGradient id="paint18_linear_106_1925" x1="238.498" y1="123.919" x2="251.17" y2="123.919" gradientUnits="userSpaceOnUse">
<stop offset="0.01" stop-color="#1D494D"/>
<stop offset="0.33" stop-color="#1F4B4D"/>
<stop offset="0.52" stop-color="#27524E"/>
<stop offset="0.68" stop-color="#365F4F"/>
<stop offset="0.82" stop-color="#4A7252"/>
<stop offset="0.95" stop-color="#648955"/>
<stop offset="0.98" stop-color="#6D9156"/>
</linearGradient>
<linearGradient id="paint19_linear_106_1925" x1="189.993" y1="99.8072" x2="201.993" y2="99.8072" gradientUnits="userSpaceOnUse">
<stop offset="0.01" stop-color="#1D494D"/>
<stop offset="0.33" stop-color="#1F4B4D"/>
<stop offset="0.52" stop-color="#27524E"/>
<stop offset="0.68" stop-color="#365F4F"/>
<stop offset="0.82" stop-color="#4A7252"/>
<stop offset="0.95" stop-color="#648955"/>
<stop offset="0.98" stop-color="#6D9156"/>
</linearGradient>
<linearGradient id="paint20_linear_106_1925" x1="175.399" y1="87.5472" x2="186.085" y2="87.5472" gradientUnits="userSpaceOnUse">
<stop offset="0.01" stop-color="#1D494D"/>
<stop offset="0.33" stop-color="#1F4B4D"/>
<stop offset="0.52" stop-color="#27524E"/>
<stop offset="0.68" stop-color="#365F4F"/>
<stop offset="0.82" stop-color="#4A7252"/>
<stop offset="0.95" stop-color="#648955"/>
<stop offset="0.98" stop-color="#6D9156"/>
</linearGradient>
<linearGradient id="paint21_linear_106_1925" x1="214.552" y1="115.574" x2="226.551" y2="115.574" gradientUnits="userSpaceOnUse">
<stop offset="0.01" stop-color="#1D494D"/>
<stop offset="0.33" stop-color="#1F4B4D"/>
<stop offset="0.52" stop-color="#27524E"/>
<stop offset="0.68" stop-color="#365F4F"/>
<stop offset="0.82" stop-color="#4A7252"/>
<stop offset="0.95" stop-color="#648955"/>
<stop offset="0.98" stop-color="#6D9156"/>
</linearGradient>
<linearGradient id="paint22_linear_106_1925" x1="254.746" y1="134.86" x2="266.727" y2="134.86" gradientUnits="userSpaceOnUse">
<stop offset="0.01" stop-color="#1D494D"/>
<stop offset="0.33" stop-color="#1F4B4D"/>
<stop offset="0.52" stop-color="#27524E"/>
<stop offset="0.68" stop-color="#365F4F"/>
<stop offset="0.82" stop-color="#4A7252"/>
<stop offset="0.95" stop-color="#648955"/>
<stop offset="0.98" stop-color="#6D9156"/>
</linearGradient>
<linearGradient id="paint23_linear_106_1925" x1="228.772" y1="120.065" x2="239.865" y2="120.065" gradientUnits="userSpaceOnUse">
<stop offset="0.01" stop-color="#1D494D"/>
<stop offset="0.33" stop-color="#1F4B4D"/>
<stop offset="0.52" stop-color="#27524E"/>
<stop offset="0.68" stop-color="#365F4F"/>
<stop offset="0.82" stop-color="#4A7252"/>
<stop offset="0.95" stop-color="#648955"/>
<stop offset="0.98" stop-color="#6D9156"/>
</linearGradient>
<linearGradient id="paint24_linear_106_1925" x1="159.533" y1="82.4188" x2="169.435" y2="82.4188" gradientUnits="userSpaceOnUse">
<stop offset="0.01" stop-color="#1D494D"/>
<stop offset="0.33" stop-color="#1F4B4D"/>
<stop offset="0.52" stop-color="#27524E"/>
<stop offset="0.68" stop-color="#365F4F"/>
<stop offset="0.82" stop-color="#4A7252"/>
<stop offset="0.95" stop-color="#648955"/>
<stop offset="0.98" stop-color="#6D9156"/>
</linearGradient>
<linearGradient id="paint25_linear_106_1925" x1="144.353" y1="76.3034" x2="158.585" y2="76.3034" gradientUnits="userSpaceOnUse">
<stop offset="0.01" stop-color="#1D494D"/>
<stop offset="0.33" stop-color="#1F4B4D"/>
<stop offset="0.52" stop-color="#27524E"/>
<stop offset="0.68" stop-color="#365F4F"/>
<stop offset="0.82" stop-color="#4A7252"/>
<stop offset="0.95" stop-color="#648955"/>
<stop offset="0.98" stop-color="#6D9156"/>
</linearGradient>
<linearGradient id="paint26_linear_106_1925" x1="130.279" y1="72.4747" x2="147.197" y2="72.4747" gradientUnits="userSpaceOnUse">
<stop offset="0.01" stop-color="#1D494D"/>
<stop offset="0.33" stop-color="#1F4B4D"/>
<stop offset="0.52" stop-color="#27524E"/>
<stop offset="0.68" stop-color="#365F4F"/>
<stop offset="0.82" stop-color="#4A7252"/>
<stop offset="0.95" stop-color="#648955"/>
<stop offset="0.98" stop-color="#6D9156"/>
</linearGradient>
<linearGradient id="paint27_linear_106_1925" x1="119.69" y1="67.1968" x2="135.754" y2="67.1968" gradientUnits="userSpaceOnUse">
<stop offset="0.01" stop-color="#1D494D"/>
<stop offset="0.33" stop-color="#1F4B4D"/>
<stop offset="0.52" stop-color="#27524E"/>
<stop offset="0.68" stop-color="#365F4F"/>
<stop offset="0.82" stop-color="#4A7252"/>
<stop offset="0.95" stop-color="#648955"/>
<stop offset="0.98" stop-color="#6D9156"/>
</linearGradient>
<linearGradient id="paint28_linear_106_1925" x1="110.534" y1="63.8727" x2="126.169" y2="63.8727" gradientUnits="userSpaceOnUse">
<stop offset="0.01" stop-color="#1D494D"/>
<stop offset="0.33" stop-color="#1F4B4D"/>
<stop offset="0.52" stop-color="#27524E"/>
<stop offset="0.68" stop-color="#365F4F"/>
<stop offset="0.82" stop-color="#4A7252"/>
<stop offset="0.95" stop-color="#648955"/>
<stop offset="0.98" stop-color="#6D9156"/>
</linearGradient>
<linearGradient id="paint29_linear_106_1925" x1="95.8545" y1="59.0986" x2="116.565" y2="59.0986" gradientUnits="userSpaceOnUse">
<stop offset="0.01" stop-color="#1D494D"/>
<stop offset="0.33" stop-color="#1F4B4D"/>
<stop offset="0.52" stop-color="#27524E"/>
<stop offset="0.68" stop-color="#365F4F"/>
<stop offset="0.82" stop-color="#4A7252"/>
<stop offset="0.95" stop-color="#648955"/>
<stop offset="0.98" stop-color="#6D9156"/>
</linearGradient>
<linearGradient id="paint30_linear_106_1925" x1="80.5785" y1="54.5223" x2="106.246" y2="54.5223" gradientUnits="userSpaceOnUse">
<stop offset="0.01" stop-color="#1D494D"/>
<stop offset="0.33" stop-color="#1F4B4D"/>
<stop offset="0.52" stop-color="#27524E"/>
<stop offset="0.68" stop-color="#365F4F"/>
<stop offset="0.82" stop-color="#4A7252"/>
<stop offset="0.95" stop-color="#648955"/>
<stop offset="0.98" stop-color="#6D9156"/>
</linearGradient>
<linearGradient id="paint31_linear_106_1925" x1="70.8738" y1="49.8571" x2="95.459" y2="49.8571" gradientUnits="userSpaceOnUse">
<stop offset="0.01" stop-color="#1D494D"/>
<stop offset="0.33" stop-color="#1F4B4D"/>
<stop offset="0.52" stop-color="#27524E"/>
<stop offset="0.68" stop-color="#365F4F"/>
<stop offset="0.82" stop-color="#4A7252"/>
<stop offset="0.95" stop-color="#648955"/>
<stop offset="0.98" stop-color="#6D9156"/>
</linearGradient>
<linearGradient id="paint32_linear_106_1925" x1="63.1478" y1="46.7307" x2="87.3597" y2="46.7307" gradientUnits="userSpaceOnUse">
<stop offset="0.01" stop-color="#1D494D"/>
<stop offset="0.33" stop-color="#1F4B4D"/>
<stop offset="0.52" stop-color="#27524E"/>
<stop offset="0.68" stop-color="#365F4F"/>
<stop offset="0.82" stop-color="#4A7252"/>
<stop offset="0.95" stop-color="#648955"/>
<stop offset="0.98" stop-color="#6D9156"/>
</linearGradient>
<clipPath id="clip0_106_1925">
<rect width="310" height="163" fill="white" transform="translate(310 163) rotate(180)"/>
</clipPath>
</defs>
</svg>
